<svg xmlns="http://www.w3.org/2000/svg" viewBox="0 0 662.9 703.37"><defs><style>.cls-1{fill:#007cba;}.cls-2{fill:#00628a;}</style></defs><g id="Layer_2" data-name="Layer 2"><g id="Layer_2-2" data-name="Layer 2"><path class="cls-1" d="M350.77,703.37A353.55,353.55,0,0,1,76.25,573.64a21.5,21.5,0,1,1,33.26-27.26,312.25,312.25,0,0,0,500-23.43,61.8,61.8,0,0,0,10.44-34.66V409.52H528.42a21.5,21.5,0,1,1,0-43h113A21.51,21.51,0,0,1,662.9,388V488.29A104.68,104.68,0,0,1,645.13,547,354.15,354.15,0,0,1,350.77,703.37ZM625.42,187.14a21.49,21.49,0,0,1-17.74-9.32A311.59,311.59,0,0,0,350.77,43c-83.19,0-161.37,32.21-220.13,90.71a21.5,21.5,0,0,1-30.33-30.48,355.31,355.31,0,0,1,542.8,50.22,21.51,21.51,0,0,1-17.69,33.69Z"/><path class="cls-2" d="M49.71,512.11a21.5,21.5,0,0,1-19.66-12.79C9.83,453.74,0,406.19,0,354A368.58,368.58,0,0,1,47.9,172.53a21.5,21.5,0,0,1,37.41,21.22A325.34,325.34,0,0,0,43,354c0,46.74,8.37,87.39,26.35,127.93a21.5,21.5,0,0,1-19.64,30.22Zm163.82-14a21.44,21.44,0,0,1-17.05-8.38L92.67,354.86A21.5,21.5,0,0,1,93.16,328L207.91,189.67A21.5,21.5,0,0,1,241,217.13L137.23,342.25l93.32,121.23a21.49,21.49,0,0,1-17,34.61Z"/></g></g></svg>