<svg width="17" height="17" viewBox="0 0 17 17" fill="none" xmlns="http://www.w3.org/2000/svg">
<path d="M16.1163 7.2958L9.12429 0.302015C8.93073 0.108629 8.66831 0 8.3947 0C8.12108 0 7.85866 0.108629 7.6651 0.302015L6.21128 1.75476L8.05341 3.59689C9.02096 3.27008 9.93701 4.19651 9.60484 5.15869L11.3805 6.93432C12.6044 6.5124 13.568 8.04274 12.6487 8.9613C11.7015 9.90846 10.1383 8.85868 10.6464 7.62619L8.98913 5.97106V10.3279C9.89375 10.7763 9.78505 11.8242 9.31379 12.2944C9.08355 12.5245 8.77135 12.6538 8.44583 12.6538C8.1203 12.6538 7.80811 12.5245 7.57786 12.2944C6.94964 11.6651 7.18205 10.6171 7.98011 10.2921V5.89419C7.23639 5.58991 7.10052 4.79506 7.31363 4.28519L5.4976 2.46701L0.702065 7.26327C0.508591 7.45678 0.399902 7.71922 0.399902 7.99286C0.399902 8.2665 0.508591 8.52894 0.702065 8.72245L7.69621 15.7162C7.88971 15.9096 8.15207 16.0182 8.42562 16.0182C8.69918 16.0182 8.96154 15.9096 9.15504 15.7162L16.1163 8.75499C16.3098 8.56147 16.4185 8.29904 16.4185 8.0254C16.4185 7.75175 16.3098 7.48932 16.1163 7.2958Z" fill="#6C6C6C"/>
</svg>
