<svg width="17" height="17" viewBox="0 0 17 17" fill="none" xmlns="http://www.w3.org/2000/svg">
<path d="M14.6833 0H2.09759C1.15008 0 0.381348 0.768732 0.381348 1.71624V14.302C0.381348 15.2495 1.15008 16.0182 2.09759 16.0182H14.6833C15.6308 16.0182 16.3996 15.2495 16.3996 14.302V1.71624C16.3996 0.768732 15.6308 0 14.6833 0ZM9.09841 12.4928C9.09841 14.0517 8.18308 14.7632 6.84942 14.7632C5.64448 14.7632 4.94726 14.1411 4.58971 13.3867L5.8161 12.6465C6.05208 13.0649 6.26661 13.4188 6.78506 13.4188C7.27848 13.4188 7.59312 13.2258 7.59312 12.4713V7.35479H9.09841V12.4928ZM12.6596 14.7632C11.2616 14.7632 10.357 14.0982 9.9172 13.2258L11.1436 12.5178C11.4654 13.0434 11.8873 13.4331 12.6274 13.4331C13.2496 13.4331 13.65 13.1221 13.65 12.6894C13.65 12.1746 13.2424 11.9922 12.5523 11.6883L12.1769 11.5274C11.09 11.0662 10.3713 10.4834 10.3713 9.25696C10.3713 8.1271 11.233 7.26898 12.5738 7.26898C13.532 7.26898 14.2185 7.6015 14.7119 8.47393L13.5392 9.22478C13.2817 8.76354 13.0028 8.58119 12.5702 8.58119C12.1304 8.58119 11.8515 8.86008 11.8515 9.22478C11.8515 9.67529 12.1304 9.85764 12.7776 10.1401L13.153 10.301C14.433 10.8481 15.1517 11.4094 15.1517 12.668C15.1517 14.0195 14.0862 14.7632 12.6596 14.7632Z" fill="#6C6C6C"/>
</svg>
