<svg width="17" height="16" viewBox="0 0 17 16" fill="none" xmlns="http://www.w3.org/2000/svg">
<path fill-rule="evenodd" clip-rule="evenodd" d="M0.100586 0H16.1006V16H0.100586V0ZM1.61934 13H7.61934V14H1.61934V13ZM1.54512 2.07402H4.24882C5.84141 2.07402 6.80438 2.99995 6.80438 4.37032V4.40736C6.80438 5.96291 5.61919 6.74069 4.10067 6.74069H2.98956V8.74069H1.54512V2.07402ZM4.17475 5.40736C4.91549 5.40736 5.3229 4.96291 5.3229 4.40736V4.37032C5.3229 3.70365 4.87845 3.37032 4.13771 3.37032H3.0266V5.40736H4.17475ZM8.02666 6.74067L7.1748 7.77771C7.98962 8.48141 8.98962 8.85178 9.98962 8.88882C11.4341 8.88882 12.4341 8.14808 12.4341 6.81474V6.77771C12.4341 5.62956 11.6563 5.14808 10.323 4.77771C9.1748 4.48141 8.87851 4.33326 8.87851 3.88882V3.85178C8.87851 3.51845 9.17481 3.25919 9.73036 3.25919C10.2859 3.25919 10.8785 3.51845 11.4711 3.92585L12.2489 2.81474C11.5822 2.25919 10.7304 1.96289 9.7674 1.96289C8.39703 1.96289 7.43406 2.74067 7.43406 3.96289V3.99993C7.43406 5.33326 8.32295 5.70363 9.65629 6.03697C10.7674 6.33326 10.9896 6.51845 10.9896 6.88882V6.92585C10.9896 7.33326 10.6192 7.55548 10.0267 7.55548C9.24888 7.55548 8.61925 7.22215 8.02666 6.74067Z" fill="#6C6C6C"/>
</svg>
