<svg width="11" height="11" viewBox="0 0 11 11" fill="none" xmlns="http://www.w3.org/2000/svg">
<path d="M5.34332 4.20957V5.53952C5.85304 5.65475 6.30613 5.84418 6.78069 5.97503V4.64312C6.27293 4.52985 5.81594 4.34041 5.34332 4.20957ZM9.70425 1.80745C9.03439 2.11796 8.21025 2.43043 7.4193 2.43043C6.37448 2.43043 5.50933 1.75081 4.19304 1.75081C3.7048 1.75081 3.2693 1.83674 2.86504 1.98516C2.91972 1.8426 2.94511 1.68832 2.93534 1.52427C2.90019 0.969633 2.44516 0.524361 1.88857 0.500926C1.26362 0.475538 0.75 0.975491 0.75 1.59457C0.75 1.96563 0.93553 2.29373 1.21871 2.49098V10.0313C1.21871 10.291 1.42767 10.5 1.68741 10.5H1.99988C2.25963 10.5 2.46859 10.291 2.46859 10.0313V8.18771C3.02127 7.95141 3.71066 7.75611 4.70276 7.75611C5.74954 7.75611 6.61274 8.43574 7.92902 8.43574C8.87034 8.43574 9.62223 8.11741 10.3214 7.63698C10.4913 7.51981 10.5909 7.32842 10.5909 7.12141V2.3738C10.5928 1.91876 10.1183 1.61606 9.70425 1.80745ZM3.90596 6.85776C3.4021 6.91049 2.92949 7.0179 2.46859 7.18195V5.80512C2.98026 5.6235 3.39624 5.51218 3.90596 5.46531V6.85776ZM9.65543 4.23105C9.19453 4.42244 8.75121 4.61187 8.21806 4.6978V6.08635C8.70239 6.01995 9.22187 5.8559 9.65543 5.57858V6.95541C9.16524 7.26983 8.70825 7.43778 8.21806 7.48465V6.08635C7.69076 6.15861 7.2826 6.11564 6.78069 5.97698V7.29327C6.31394 7.14875 5.85695 6.96712 5.34332 6.87729V5.53952C4.95859 5.45359 4.54652 5.40672 3.90596 5.46531V4.09825C3.4685 4.15879 3.03494 4.29745 2.46859 4.50641V3.12959C3.11697 2.89133 3.44702 2.74291 3.90596 2.69994V4.09825C4.43325 4.02599 4.85118 4.07286 5.34332 4.20957V2.89328C5.80617 3.0378 6.26511 3.21942 6.78069 3.30926V4.64507C7.24354 4.74858 7.71029 4.77983 8.21806 4.6978V3.29364C8.74535 3.19989 9.23945 3.02804 9.65543 2.85422V4.23105Z" fill="#6C6C6C"/>
</svg>
