<svg width="16" height="10" viewBox="0 0 16 10" fill="none" xmlns="http://www.w3.org/2000/svg">
<path d="M7.57574 2.08333C7.29695 2.08765 7.02021 2.1315 6.75398 2.21354C6.87713 2.42795 6.9427 2.67003 6.94443 2.91667C6.94443 3.10818 6.90633 3.29781 6.8323 3.47475C6.75827 3.65168 6.64977 3.81245 6.51298 3.94786C6.37619 4.08328 6.2138 4.1907 6.03508 4.26399C5.85636 4.33728 5.66481 4.375 5.47137 4.375C5.22224 4.37329 4.97771 4.30837 4.76114 4.18646C4.59027 4.77312 4.61019 5.39814 4.81806 5.97298C5.02594 6.54782 5.41124 7.04333 5.91938 7.38934C6.42752 7.73534 7.03275 7.91429 7.64934 7.90084C8.26592 7.88739 8.8626 7.68223 9.35486 7.3144C9.84712 6.94658 10.21 6.43474 10.3921 5.8514C10.5742 5.26806 10.5663 4.64278 10.3695 4.06413C10.1727 3.48549 9.79697 2.98281 9.29557 2.62731C8.79416 2.2718 8.19247 2.08149 7.57574 2.08333V2.08333ZM15.06 4.61979C13.6335 1.86432 10.8094 0 7.57574 0C4.34211 0 1.51724 1.86563 0.091526 4.62005C0.0313519 4.73789 0 4.86809 0 5.00013C0 5.13217 0.0313519 5.26237 0.091526 5.38021C1.51803 8.13568 4.34211 10 7.57574 10C10.8094 10 13.6342 8.13437 15.06 5.37995C15.1201 5.26211 15.1515 5.13191 15.1515 4.99987C15.1515 4.86783 15.1201 4.73763 15.06 4.61979V4.61979ZM7.57574 8.75C4.98078 8.75 2.60179 7.31771 1.31706 5C2.60179 2.68229 4.98052 1.25 7.57574 1.25C10.171 1.25 12.5497 2.68229 13.8344 5C12.55 7.31771 10.171 8.75 7.57574 8.75Z" fill="#6C6C6C"/>
</svg>
