<svg width="28" height="20" viewBox="0 0 28 20" fill="none" xmlns="http://www.w3.org/2000/svg">
<path d="M4.62151 14.1434L3.18725 19.7609C3.18725 19.7609 3.18725 19.7609 2.86852 19.7609H0L5.21912 1.43426C5.27788 0.95798 5.27788 0.476282 5.21912 0C5.21912 0 5.21912 0 5.21912 0H9.20318C9.20318 0 9.20318 0 9.40238 0L15.3785 19.7609V20H12.2311C12.1635 20.0007 12.098 19.9768 12.0467 19.9329C11.9954 19.8889 11.9618 19.8278 11.9522 19.7609L10.4781 14.1434H4.62151ZM9.76095 11.2351C9.24302 9.20318 7.96812 4.82071 7.56971 2.62948C7.17131 4.74103 6.17529 8.40637 5.41832 11.2351H9.76095ZM19.5219 13.0677C19.4729 13.6032 19.5423 14.1428 19.7252 14.6485C19.9081 15.1541 20.2 15.6133 20.5802 15.9935C20.9604 16.3737 21.4196 16.6656 21.9252 16.8485C22.4308 17.0314 22.9705 17.1008 23.506 17.0518C24.5311 17.0905 25.5519 16.9 26.494 16.494C26.494 16.494 26.733 16.494 26.733 16.494V18.8048C26.748 18.9238 26.748 19.0443 26.733 19.1633C25.5787 19.6621 24.3227 19.8805 23.0677 19.8008C18.247 19.8008 16.4143 16.255 16.4143 12.3107C16.4143 8.36653 18.7251 4.34263 22.5498 4.34263C23.3504 4.35257 24.1391 4.53726 24.8609 4.88377C25.5827 5.23028 26.2201 5.73025 26.7285 6.34874C27.237 6.96723 27.6042 7.6893 27.8046 8.46448C28.0049 9.23967 28.0335 10.0493 27.8884 10.8366C27.9465 11.4595 27.9465 12.0863 27.8884 12.7092C27.8884 12.7092 27.8884 12.7092 27.8884 12.7092C26.8674 12.788 25.8418 12.788 24.8207 12.7092L19.5219 13.0677ZM23.2669 10.5976H24.6215V10.2789C24.6215 9.24302 24.1434 7.41035 22.2311 7.41035C20.3187 7.41035 19.7609 8.96414 19.5219 10.5578L23.2669 10.5976Z" fill="#B12851"/>
</svg>
