<svg width="22" height="20" viewBox="0 0 22 20" fill="none" xmlns="http://www.w3.org/2000/svg">
<path d="M4.44445 14.4828L3.06513 19.7318C3.06513 19.7318 3.06513 19.9617 2.75862 19.9617H0C0 19.9617 0 19.9617 0 19.6935L5.01916 2.18391C5.07389 1.70014 5.07389 1.21174 5.01916 0.727969H8.85058C8.85058 0.727969 8.85058 0.727969 9.04215 0.727969L14.6743 19.8851H11.7625C11.7625 19.8851 11.5326 19.8851 11.4943 19.8851L10 14.4828H4.44445ZM9.38697 11.5709C8.88889 9.69349 7.66284 5.47893 7.27969 3.37165C6.89655 5.4023 5.9387 8.9272 5.21073 11.6858L9.38697 11.5709ZM17.2414 1.91571C17.2414 1.40763 17.4432 0.920363 17.8025 0.561098C18.1617 0.201833 18.649 0 19.1571 0C19.6652 0 20.1524 0.201833 20.5117 0.561098C20.871 0.920363 21.0728 1.40763 21.0728 1.91571V1.91571C21.1047 2.35692 20.9619 2.79298 20.6752 3.12985C20.3885 3.46672 19.9809 3.67741 19.5402 3.71648C19.514 3.79211 19.4593 3.8545 19.3877 3.8903C19.3161 3.9261 19.2333 3.93247 19.1571 3.90805C18.8908 3.94147 18.6203 3.91226 18.3673 3.82273C18.1142 3.7332 17.8856 3.58583 17.6995 3.39235C17.5135 3.19887 17.3752 2.96462 17.2957 2.70826C17.2161 2.45191 17.1975 2.18052 17.2414 1.91571V1.91571ZM17.2414 5.74713V5.55556H20.0383H20.2682V19.7318C20.2682 19.7318 20.2682 19.9617 20.0383 19.9617H17.6628C17.6297 19.9866 17.5893 20 17.5479 20C17.5064 20 17.4661 19.9866 17.433 19.9617V5.90038L17.2414 5.74713Z" fill="#B12851"/>
</svg>
