<svg width="21" height="20" viewBox="0 0 21 20" fill="none" xmlns="http://www.w3.org/2000/svg">
<path fill-rule="evenodd" clip-rule="evenodd" d="M15.3455 0H18.9819C19.9846 0 20.8001 0.815455 20.8001 1.81818V18.1818C20.8001 19.1845 19.9846 20 18.9819 20H13.586H13.5273H1.82527C0.817132 20 0 19.1829 0 18.1747V14.4113C0 13.4032 0.817132 12.586 1.82527 12.586H6.58602V7.82527C6.58602 6.81713 7.40315 6 8.41129 6H13.5273V1.81818C13.5273 0.815455 14.3428 0 15.3455 0ZM13.5273 6.82796H8.41129C7.86042 6.82796 7.41398 7.2744 7.41398 7.82527V13C7.41398 13.2286 7.22863 13.414 7 13.414H1.82527C1.2744 13.414 0.827957 13.8604 0.827957 14.4113V18.1747C0.827957 18.7256 1.2744 19.172 1.82527 19.172H13.5273V6.82796Z" fill="#007CBA"/>
</svg>
