<svg width="15" height="20" viewBox="0 0 15 20" fill="none" xmlns="http://www.w3.org/2000/svg">
<path d="M12.5 1.25C12.5 0.918479 12.3683 0.600537 12.1339 0.366117C11.8995 0.131696 11.5815 0 11.25 0C10.9185 0 10.6005 0.131696 10.3661 0.366117C10.1317 0.600537 10 0.918479 10 1.25V5H12.5V1.25ZM14.375 6.25H0.625C0.45924 6.25 0.300269 6.31585 0.183058 6.43306C0.065848 6.55027 0 6.70924 0 6.875L0 8.125C0 8.29076 0.065848 8.44973 0.183058 8.56694C0.300269 8.68415 0.45924 8.75 0.625 8.75H1.25V10C1.25022 11.4407 1.74793 12.8371 2.65898 13.9531C3.57004 15.0692 4.83853 15.8364 6.25 16.125V20H8.75V16.125C10.1615 15.8364 11.43 15.0692 12.341 13.9531C13.2521 12.8371 13.7498 11.4407 13.75 10V8.75H14.375C14.5408 8.75 14.6997 8.68415 14.8169 8.56694C14.9342 8.44973 15 8.29076 15 8.125V6.875C15 6.70924 14.9342 6.55027 14.8169 6.43306C14.6997 6.31585 14.5408 6.25 14.375 6.25ZM5 1.25C5 0.918479 4.8683 0.600537 4.63388 0.366117C4.39946 0.131696 4.08152 0 3.75 0C3.41848 0 3.10054 0.131696 2.86612 0.366117C2.6317 0.600537 2.5 0.918479 2.5 1.25V5H5V1.25Z" fill="#007CBA"/>
</svg>
