<svg width="10" height="20" viewBox="0 0 10 20" fill="none" xmlns="http://www.w3.org/2000/svg">
<path fill-rule="evenodd" clip-rule="evenodd" d="M9.17151 9.70728C9.22812 13.6382 7.02531 16.4102 5.35655 17.5385C5.33568 17.5539 5.31293 17.5695 5.28851 17.585C5.09956 18.3815 4.95812 19.1907 4.86419 20H4.43342C4.33128 18.9173 4.18092 17.8829 4.14775 17.6596C3.3797 17.1341 -0.217823 14.1333 0.0103942 9.39231C0.262879 4.26093 3.11769 1.7964 3.9656 1.06441C3.996 1.03816 4.02382 1.01414 4.04886 0.992308C4.41039 0.676923 4.46424 0.415385 4.49501 0C4.53902 0.103332 4.58494 0.205713 4.63276 0.307259C4.61886 0.178443 4.60378 0.0747178 4.5874 0C4.75663 0.376923 4.94894 0.746154 5.15663 1.10769C5.28393 1.30551 5.49392 1.52141 5.75514 1.78997C6.66204 2.72236 8.18633 4.28949 9.01048 7.93846C9.1157 8.55125 9.16662 9.14134 9.17151 9.70728Z" fill="#37A268"/>
</svg>
