<svg width="20" height="20" viewBox="0 0 20 20" fill="none" xmlns="http://www.w3.org/2000/svg">
<path d="M11.5625 1H19.0625C19.5803 1 20 1.41973 20 1.9375V8.1875C20 8.70527 19.5803 9.125 19.0625 9.125H11.5625C11.0447 9.125 10.625 8.70527 10.625 8.1875V1.9375C10.625 1.41973 11.0447 1 11.5625 1ZM8.4375 1H0.9375C0.419727 1 0 1.41973 0 1.9375V8.1875C0 8.70527 0.419727 9.125 0.9375 9.125H8.4375C8.95527 9.125 9.375 8.70527 9.375 8.1875V1.9375C9.375 1.41973 8.95527 1 8.4375 1ZM0 11.3125V17.5625C0 18.0803 0.419727 18.5 0.9375 18.5H8.4375C8.95527 18.5 9.375 18.0803 9.375 17.5625V11.3125C9.375 10.7947 8.95527 10.375 8.4375 10.375H0.9375C0.419727 10.375 0 10.7947 0 11.3125ZM11.5625 18.5H19.0625C19.5803 18.5 20 18.0803 20 17.5625V11.3125C20 10.7947 19.5803 10.375 19.0625 10.375H11.5625C11.0447 10.375 10.625 10.7947 10.625 11.3125V17.5625C10.625 18.0803 11.0447 18.5 11.5625 18.5Z" fill="#007CBA"/>
</svg>
