<svg width="14" height="20" viewBox="0 0 14 20" fill="none" xmlns="http://www.w3.org/2000/svg">
<path d="M10.0039 6.66797C10.8881 6.66797 11.7361 6.31671 12.3614 5.69147C12.9866 5.06622 13.3379 4.21821 13.3379 3.33398C13.3379 2.44976 12.9866 1.60174 12.3614 0.976501C11.7361 0.351258 10.8881 0 10.0039 0L3.33594 0C2.45223 0 1.60471 0.351052 0.979837 0.975929C0.354959 1.60081 0.00390716 2.44832 0.00390716 3.33203C0.00390716 4.21574 0.354959 5.06326 0.979837 5.68813C1.60471 6.31301 2.45223 6.66406 3.33594 6.66406C2.45171 6.66406 1.6037 7.01532 0.978455 7.64056C0.353212 8.26581 0.00195406 9.11382 0.00195406 9.99805C0.00195406 10.8823 0.353212 11.7303 0.978455 12.3555C1.6037 12.9808 2.45171 13.332 3.33594 13.332C2.67654 13.3316 2.03183 13.5268 1.48335 13.8928C0.934862 14.2588 0.507232 14.7793 0.254534 15.3884C0.00183566 15.9974 -0.064581 16.6677 0.0636826 17.3145C0.191946 17.9613 0.509129 18.5556 0.975122 19.0221C1.44112 19.4887 2.03499 19.8065 2.68164 19.9356C3.3283 20.0646 3.99869 19.9989 4.60804 19.747C5.2174 19.495 5.73834 19.068 6.10501 18.5199C6.47167 17.9718 6.66758 17.3274 6.66797 16.668V6.66797H10.0039ZM10.0039 6.66797C9.34489 6.66797 8.70068 6.86339 8.15273 7.22952C7.60478 7.59565 7.1777 8.11604 6.92551 8.72489C6.67332 9.33374 6.60733 10.0037 6.7359 10.65C6.86447 11.2964 7.18181 11.8901 7.64781 12.3561C8.1138 12.8221 8.70751 13.1394 9.35386 13.268C10.0002 13.3966 10.6702 13.3306 11.279 13.0784C11.8879 12.8262 12.4083 12.3991 12.7744 11.8512C13.1405 11.3032 13.3359 10.659 13.3359 10C13.3358 9.11632 12.9848 8.26887 12.3599 7.64401C11.735 7.01916 10.8876 6.66807 10.0039 6.66797Z" fill="#B12851"/>
</svg>
