<svg width="20" height="20" viewBox="0 0 20 20" fill="none" xmlns="http://www.w3.org/2000/svg">
<path fill-rule="evenodd" clip-rule="evenodd" d="M20 10C20 15.5228 15.5228 20 10 20C4.47715 20 0 15.5228 0 10C0 4.47715 4.47715 0 10 0C15.5228 0 20 4.47715 20 10ZM2.14286 10.1429C2.14286 12.0714 2.92857 14.0714 4.42857 15.5714C5.92857 17.0714 7.92857 17.7857 9.92857 17.8571L2.14286 10.1429ZM2.35714 8.28572L11.7143 17.6429C15.2143 16.8571 17.8571 13.7143 17.8571 10H12.8571V11.4286H16.2857C15.7857 13.5714 14.2143 15.3571 12.1429 16.0714L3.92857 7.85714C4.85714 5.35714 7.21429 3.57143 10 3.57143C12.1429 3.57143 14.0714 4.64286 15.2857 6.28571L16.3571 5.35714C14.9286 3.42857 12.6429 2.14286 10 2.14286C6.28571 2.14286 3.14286 4.78571 2.35714 8.28572Z" fill="#37A268"/>
</svg>
