<svg width="20" height="20" viewBox="0 0 20 20" fill="none" xmlns="http://www.w3.org/2000/svg">
<path d="M19.6231 9.10938L10.8931 0.377089C10.6514 0.135631 10.3238 0 9.98212 0C9.6405 0 9.31285 0.135631 9.07117 0.377089L7.25596 2.19096L9.556 4.491C10.7641 4.08296 11.9078 5.23967 11.4931 6.44103L13.7101 8.65803C15.2382 8.13124 16.4414 10.042 15.2936 11.1889C14.111 12.3715 12.1592 11.0608 12.7936 9.52189L10.7243 7.45533V12.8952C11.8538 13.455 11.7181 14.7635 11.1297 15.3506C10.8422 15.6379 10.4524 15.7993 10.046 15.7993C9.63952 15.7993 9.24972 15.6379 8.96224 15.3506C8.17785 14.5648 8.46804 13.2563 9.46448 12.8505V7.35935C8.53589 6.97943 8.36625 5.98701 8.63232 5.35039L6.36488 3.08026L0.377274 9.06875C0.135707 9.31037 0 9.63804 0 9.97971C0 10.3214 0.135707 10.649 0.377274 10.8907L9.11001 19.6229C9.35161 19.8644 9.67919 20 10.0207 20C10.3623 20 10.6899 19.8644 10.9315 19.6229L19.6231 10.9313C19.8647 10.6897 20.0004 10.362 20.0004 10.0203C20.0004 9.67867 19.8647 9.351 19.6231 9.10938V9.10938Z" fill="#007CBA"/>
</svg>
