<svg width="19" height="20" viewBox="0 0 19 20" fill="none" xmlns="http://www.w3.org/2000/svg">
<path d="M18.0324 16.974V0H14.9356V4.90012H13.8771C12.8584 4.86852 11.8445 5.05318 10.9024 5.44194C9.96018 5.83069 9.11108 6.4147 8.41104 7.15549C7.71099 7.89628 7.17589 8.77702 6.841 9.73966C6.50611 10.7023 6.37904 11.725 6.46816 12.7403C6.36508 13.681 6.46715 14.6328 6.76735 15.5302C7.06754 16.4276 7.55872 17.2493 8.20705 17.9386C8.85537 18.6279 9.64542 19.1685 10.5228 19.5231C11.4001 19.8776 12.3439 20.0378 13.2891 19.9925C14.9322 19.9837 16.5526 19.6087 18.0324 18.8949C18.0324 18.8949 18.0324 18.8949 18.0324 18.6989C17.9743 18.1254 17.9743 17.5475 18.0324 16.974ZM14.7396 16.974C14.3113 17.0457 13.8742 17.0457 13.4459 16.974C11.3683 16.974 9.52584 15.6412 9.52584 12.2307C9.52584 8.82022 11.3683 7.84019 13.6419 7.84019C14.0067 7.79942 14.3748 7.79942 14.7396 7.84019V16.974ZM3.01847 0H0.235206H0V19.6005H2.94007C3.17528 19.6005 3.17528 19.6005 3.17528 19.6005V0.235206C3.17528 0.235206 3.21448 0 3.01847 0Z" fill="#B12851"/>
</svg>
