<svg width="20" height="20" viewBox="0 0 20 20" fill="none" xmlns="http://www.w3.org/2000/svg">
<path d="M10.2061 17.1544C10.0731 17.1232 9.94387 17.0801 9.81415 17.0402L9.71637 17.0094C9.58954 16.9691 9.46383 16.9266 9.33876 16.8819L9.2869 16.8624C9.17483 16.8216 9.06405 16.7784 8.95392 16.7342L8.86048 16.6961C8.73974 16.6466 8.61965 16.5949 8.50116 16.5409L8.4294 16.5079C8.32745 16.4599 8.22662 16.4116 8.12611 16.3614L8.03845 16.3178C7.95962 16.2779 7.88159 16.2356 7.80389 16.1939C7.75187 16.1654 7.69889 16.1386 7.64735 16.1089C7.5523 16.0561 7.45902 16.0013 7.36623 15.9453L7.27134 15.8903C7.14788 15.8149 7.02586 15.7368 6.90528 15.6575L6.80654 15.5891C6.71888 15.5306 6.63186 15.471 6.54597 15.4093L6.462 15.3481C6.37916 15.2873 6.29728 15.2258 6.21572 15.1633L6.1067 15.0776C6.03221 15.0185 5.95787 14.9588 5.8845 14.8973L5.78544 14.8148C5.69216 14.735 5.59984 14.655 5.50865 14.5727L5.47846 14.5462C5.37989 14.4563 5.28307 14.3642 5.18755 14.2717L5.10566 14.1899C5.03486 14.1199 4.96518 14.0494 4.89663 13.977L4.81475 13.8922C4.72757 13.7995 4.64199 13.7057 4.55802 13.6105L4.5455 13.5965C4.45672 13.4959 4.37018 13.3931 4.28525 13.2892L4.21717 13.2052C4.15376 13.1261 4.09114 13.0459 4.02981 12.9649L3.96126 12.8762C3.88756 12.7769 3.81547 12.6781 3.74499 12.5773C1.7943 9.81505 1.09333 6.00556 2.6526 2.87704L1.2701 4.69712C-0.500623 7.33883 -0.280186 10.7762 1.07246 13.5834C1.10457 13.6507 1.13844 13.7169 1.17152 13.783L1.23494 13.9095L1.27427 13.9824L1.34475 14.1134C1.38682 14.1902 1.42984 14.2667 1.474 14.3432L1.54753 14.4692C1.59634 14.551 1.64627 14.6318 1.69748 14.7125L1.76138 14.8148C1.8317 14.924 1.90395 15.033 1.97845 15.14L1.98471 15.1483L2.02132 15.1996C2.08554 15.2918 2.152 15.3828 2.21911 15.4728L2.29345 15.5711C2.35334 15.6493 2.41418 15.727 2.47632 15.8043L2.54616 15.8909C2.62932 15.9926 2.71425 16.0938 2.80079 16.1929L2.80593 16.1984L2.81588 16.2098C2.90033 16.3056 2.98703 16.3993 3.07469 16.4929L3.1577 16.5797C3.22561 16.6507 3.29465 16.7206 3.36433 16.7901L3.44878 16.8734C3.5419 16.9646 3.63598 17.0539 3.73199 17.1412L3.73648 17.1449L3.78577 17.1886C3.87022 17.2645 3.95628 17.34 4.04314 17.414L4.14974 17.5022C4.22055 17.5612 4.29215 17.6192 4.36424 17.6762L4.47887 17.7667C4.55835 17.8275 4.63862 17.8874 4.71954 17.9459L4.8072 18.0103L4.83128 18.0282C4.90803 18.083 4.98654 18.1358 5.06504 18.1887L5.16619 18.2587C5.28644 18.3377 5.40862 18.4158 5.53193 18.4913L5.63307 18.5505C5.72379 18.6048 5.81514 18.6582 5.90778 18.7103C5.95787 18.7383 6.00925 18.7648 6.05966 18.7916C6.125 18.8271 6.18987 18.8631 6.25633 18.8976L6.30177 18.9205L6.38221 18.9608C6.48512 19.0118 6.58884 19.062 6.69368 19.1103L6.7595 19.141C6.87959 19.1955 7.00065 19.2478 7.12283 19.2978L7.21129 19.334C7.32432 19.3791 7.43895 19.4238 7.55407 19.4658L7.5971 19.4813C7.72329 19.5271 7.85093 19.5696 7.97937 19.6111L8.07169 19.6398C8.20238 19.6806 8.33146 19.7294 8.46632 19.7553C17.03 21.3764 19.5175 14.4133 19.5175 14.4133C17.4281 17.2389 13.7197 17.9842 10.2061 17.1544V17.1544ZM7.12122 9.94955C7.31308 10.235 7.52581 10.5747 7.78029 10.804C7.8726 10.9095 7.9691 11.0125 8.06767 11.1137L8.14345 11.1912C8.23914 11.2875 8.33644 11.3821 8.43694 11.4741L8.44882 11.4848L8.45171 11.4878C8.56297 11.5891 8.67777 11.6863 8.79449 11.7823L8.8722 11.8453C8.98924 11.9385 9.10853 12.0298 9.23071 12.1171L9.24114 12.1253C9.29509 12.1639 9.35016 12.1999 9.4049 12.2373L9.48229 12.2904C9.56963 12.3486 9.65825 12.4053 9.74816 12.4596L9.78573 12.4823C9.86328 12.5286 9.94195 12.5743 10.0206 12.6186L10.1043 12.6638C10.1587 12.6933 10.2131 12.7234 10.2687 12.7521L10.2936 12.7638C10.4063 12.8214 10.5201 12.8771 10.6365 12.9296L10.7123 12.9619C10.8051 13.0029 10.899 13.0429 10.9932 13.0802L11.1137 13.1261C11.1992 13.1591 11.2851 13.1891 11.3718 13.2192L11.4885 13.2581C11.6117 13.2977 11.7334 13.3479 11.8617 13.3701C18.4736 14.5072 20 9.22258 20 9.22258C18.6241 11.2797 15.9592 12.2613 13.1157 11.495C12.9894 11.4605 12.8649 11.4231 12.7412 11.3826L12.6288 11.3448C12.5408 11.3153 12.4535 11.284 12.3668 11.2512L12.2486 11.2055C12.1537 11.1675 12.0598 11.1285 11.9667 11.0875L11.8907 11.0542C11.774 11.0015 11.659 10.9458 11.5459 10.8877C11.4874 10.8582 11.4301 10.827 11.3728 10.7963L11.2729 10.743C11.1994 10.7017 11.1262 10.6587 11.0541 10.6147L11.0017 10.5839C10.9122 10.5297 10.8242 10.4737 10.7368 10.4159L10.6569 10.3605C10.5994 10.3219 10.5418 10.2824 10.4853 10.2427C10.3634 10.1554 10.2449 10.064 10.1279 9.97138L10.0474 9.90555C8.80284 8.8856 7.81625 7.49133 7.34712 5.91056C6.85551 4.27131 6.96164 2.43106 7.8132 0.937457L6.76689 2.47072C5.48617 4.38363 5.55585 6.94452 6.5548 8.96759C6.72225 9.30724 6.91058 9.63639 7.12122 9.94955V9.94955ZM14.0903 7.58316C14.1447 7.60399 14.1991 7.62265 14.2544 7.64215L14.3268 7.66598C14.4045 7.69132 14.4819 7.72082 14.5623 7.73665C18.2131 8.46895 19.2035 5.7919 19.467 5.39775C18.5995 6.69419 17.1419 7.00535 15.3532 6.5547C15.2119 6.5192 15.0565 6.46621 14.9203 6.41604C14.7456 6.35138 14.5735 6.27771 14.4064 6.19455C14.0887 6.03606 13.786 5.8439 13.5054 5.62391C11.9048 4.36313 10.9106 1.95841 11.9549 0L11.3898 0.808463C10.6349 1.96174 10.5607 3.39401 11.0846 4.66762C11.637 6.01956 12.7691 7.08001 14.0903 7.58316V7.58316Z" fill="#007CBA"/>
</svg>
