<svg width="21" height="20" viewBox="0 0 21 20" fill="none" xmlns="http://www.w3.org/2000/svg">
<path d="M13.5953 8.21218C13.5953 7.97642 13.5953 7.46562 13.5953 6.44401V6.20825C15.7166 5.39846 17.9652 4.9727 20.2358 4.95088C20.2358 4.95088 20.2358 4.95088 20.2358 5.14735V7.85855V8.05501C19.0847 7.9884 17.9304 8.10781 16.8173 8.40864V19.6464C16.8173 19.6464 16.8173 19.6464 16.5815 19.6464H13.831H13.5953V8.21218ZM0.275049 20C0 19.8428 0 19.6464 0 19.6464V0.235756C0 0.235756 0 0 0.235756 0H3.06483C3.06483 0 3.06483 0 3.06483 0.235756V16.8959H10.6876C10.6876 16.8959 10.6876 16.8959 10.6876 17.1316L10.4126 19.6464C10.4126 19.6464 10.4126 19.8821 10.1375 19.8821H0.275049V20Z" fill="#B12851"/>
</svg>
