<svg width="19" height="20" viewBox="0 0 19 20" fill="none" xmlns="http://www.w3.org/2000/svg">
<path d="M14.1645 9.44391C14.302 9.42608 14.4413 9.42608 14.5788 9.44391C14.6527 9.27331 14.6657 8.97931 14.5988 8.65948C14.4995 8.18418 14.365 7.89598 14.0875 7.94097C13.8099 7.98596 13.7993 8.33029 13.8986 8.80603C13.9547 9.0733 14.0541 9.30226 14.1659 9.44391H14.1645ZM11.7787 9.82166C11.9778 9.91075 12.0994 9.96687 12.1475 9.91654C12.2317 9.83012 11.9925 9.49826 11.6076 9.33344C11.3854 9.24137 11.1432 9.20809 10.9044 9.2368C10.6656 9.26551 10.4382 9.35525 10.2441 9.49737C10.1105 9.59448 9.98532 9.72989 10.0031 9.81186C10.041 9.97845 10.4486 9.69114 11.0099 9.65684C11.3217 9.63724 11.58 9.73479 11.7787 9.8221V9.82166ZM11.3778 10.0502C10.9738 10.1134 10.7096 10.341 10.7778 10.5001C10.8179 10.5152 10.8299 10.5362 11.0099 10.464C11.2757 10.3636 11.5629 10.3337 11.8437 10.3771C11.9738 10.3923 12.0357 10.4003 12.0638 10.3553C12.1288 10.2564 11.8094 9.99894 11.3782 10.0502H11.3778ZM13.7908 10.8119C13.9414 10.5059 13.3053 10.1914 13.1538 10.5001C13.0023 10.8088 13.6402 11.1184 13.7917 10.8106L13.7908 10.8119ZM14.4884 9.90005C14.1471 9.89426 14.1342 10.6039 14.4768 10.6097C14.8193 10.6154 14.8322 9.9054 14.4893 9.89872L14.4884 9.90005ZM4.74238 13.4146C4.68358 13.4285 4.47511 13.4792 4.36509 13.31C4.13345 12.9536 4.85998 12.4021 4.49872 11.7166C4.09336 10.9384 3.25948 11.1135 2.93742 11.4698C2.54943 11.8974 2.54899 12.5184 2.7147 12.5425C2.9049 12.5678 2.89644 12.2543 3.04344 12.0244C3.08451 11.961 3.13774 11.9064 3.20005 11.8637C3.26236 11.821 3.33251 11.7911 3.40644 11.7757C3.48038 11.7603 3.55664 11.7597 3.63081 11.774C3.70498 11.7882 3.77559 11.817 3.83856 11.8587C4.35484 12.1968 3.89959 12.6498 3.94013 13.1336C4.00204 13.8766 4.76064 13.8628 4.90141 13.5345C4.9105 13.5183 4.91451 13.4997 4.91292 13.4812C4.91133 13.4627 4.90421 13.4451 4.8925 13.4307C4.89383 13.4703 4.92279 13.3728 4.74327 13.4133L4.74238 13.4146ZM18.0934 12.6543C17.9442 12.1318 17.9789 12.2436 17.7914 11.7402C17.9005 11.5767 18.4725 10.6711 17.6546 9.81364C17.1913 9.32721 16.1445 9.07686 15.8238 8.98777C15.757 8.48041 16.031 6.37299 14.8652 5.29055C15.7913 4.3306 16.369 3.27311 16.3677 2.36617C16.365 0.621792 14.2229 0.0943804 11.5827 1.18707L11.0237 1.42449C11.021 1.42226 10.012 0.432476 9.9969 0.419113C6.98789 -2.20547 -2.42312 8.25412 0.585894 10.795L1.24338 11.3522C1.06594 11.8283 1.00337 12.3396 1.06074 12.8445C1.21041 14.3323 2.66436 15.5359 4.06886 15.5341C6.64044 21.4612 16.0024 21.471 18.4252 15.6677C18.5028 15.4686 18.831 14.5715 18.831 13.7799C18.831 12.9884 18.3816 12.6543 18.0947 12.6543H18.0934ZM4.01719 14.7996C3.00067 14.7724 1.90309 13.8574 1.79395 12.7723C1.51911 10.0413 5.10186 9.41942 5.53573 12.2231C5.73796 13.5434 5.3277 14.8285 4.01585 14.7982L4.01719 14.7996ZM3.19266 9.71252C2.51736 9.84393 1.92224 10.2266 1.55786 10.7571C1.34048 10.5758 0.934235 10.2226 0.863409 10.0889C0.283879 8.98198 1.49773 6.83715 2.34675 5.62508C4.44527 2.63032 7.73134 0.363877 9.25344 0.775027C9.50067 0.844962 10.3199 1.79466 10.3199 1.79466C10.3199 1.79466 8.79864 2.63834 7.38879 3.81477C5.48851 5.27807 4.05283 7.40465 3.19266 9.71252ZM13.8336 14.2182C13.8336 14.2182 12.2415 14.4543 10.7372 13.9033C11.0139 13.0053 11.9399 14.175 15.0314 13.2881C15.7125 13.093 16.6069 12.7091 17.3032 12.1589C17.453 12.505 17.5595 12.8683 17.6203 13.2405C17.7834 13.2111 18.2551 13.2173 18.1299 14.0467C17.9834 14.9318 17.6074 15.6504 16.9749 16.3114C16.5798 16.7395 16.1095 17.0915 15.5873 17.3497C15.2964 17.5021 14.9934 17.63 14.6812 17.7319C12.2976 18.5106 9.85703 17.6544 9.06858 15.8165C9.00463 15.6762 8.95176 15.5312 8.91045 15.3826C8.57503 14.171 8.85967 12.7175 9.74967 11.8026C9.80447 11.7442 9.86015 11.6756 9.86015 11.5892C9.85237 11.5148 9.82259 11.4444 9.77462 11.387C9.46281 10.9357 8.38526 10.1664 8.60175 8.6773C8.75766 7.60822 9.69266 6.85496 10.5648 6.89951L10.7876 6.91243C11.1653 6.9347 11.4954 6.98325 11.8068 6.99617C12.3275 7.01844 12.7957 6.94316 13.3498 6.48123C13.5369 6.32532 13.687 6.18991 13.9405 6.1467C14.0429 6.12133 14.1495 6.11709 14.2536 6.13424C14.3578 6.1514 14.4574 6.18959 14.5463 6.24648C14.9917 6.54226 15.0541 7.25899 15.0772 7.78283C15.0902 8.08218 15.1262 8.80737 15.1387 9.01361C15.1668 9.4889 15.2915 9.55572 15.5445 9.63724C15.6866 9.68401 15.8185 9.71876 16.0127 9.77355C16.6011 9.93881 16.9481 10.1067 17.1709 10.3219C17.2844 10.4331 17.3586 10.5785 17.382 10.7357C17.4515 11.2422 16.9891 11.8672 15.7646 12.4356C13.6839 13.4013 11.5916 13.0792 11.2887 13.0449C10.3911 12.9242 9.87975 14.0837 10.4178 14.878C11.4263 16.3662 15.8701 15.7688 17.1606 13.9269C17.1913 13.8824 17.166 13.8561 17.1281 13.8824C15.2675 15.1555 12.8046 15.5844 11.4059 15.0405C11.1934 14.9581 10.7497 14.7537 10.6958 14.298C12.638 14.8989 13.8585 14.3309 13.8585 14.3309C13.8585 14.3309 13.9489 14.2067 13.8336 14.2182V14.2182ZM7.06852 5.61216C7.8142 4.75022 8.73271 4.00052 9.55546 3.57958C9.56167 3.5759 9.56893 3.5744 9.57609 3.5753C9.58325 3.5762 9.58991 3.57946 9.59501 3.58457C9.60012 3.58967 9.60338 3.59633 9.60428 3.60349C9.60518 3.61065 9.60368 3.61791 9.6 3.62412C9.53497 3.74261 9.40891 3.99562 9.36882 4.18761C9.36722 4.19421 9.36767 4.20114 9.37012 4.20748C9.37256 4.21381 9.37687 4.21925 9.38248 4.22308C9.3881 4.2269 9.39474 4.22892 9.40153 4.22887C9.40832 4.22882 9.41493 4.22671 9.42049 4.2228C9.93231 3.87402 10.8228 3.50029 11.6032 3.45218C11.6105 3.45167 11.6179 3.45356 11.6241 3.45754C11.6303 3.46153 11.635 3.4674 11.6376 3.4743C11.6402 3.4812 11.6405 3.48875 11.6385 3.49584C11.6365 3.50293 11.6322 3.50917 11.6264 3.51365C11.4973 3.61308 11.3818 3.72899 11.2829 3.85843C11.2793 3.86336 11.2772 3.86918 11.2767 3.87525C11.2762 3.88132 11.2773 3.88742 11.28 3.89288C11.2827 3.89833 11.2869 3.90295 11.292 3.90622C11.2972 3.90949 11.3031 3.91129 11.3092 3.91143C11.8575 3.91544 12.6304 4.10743 13.1355 4.38985C13.1694 4.409 13.1453 4.47493 13.107 4.46646C10.0089 3.75642 7.62444 5.29188 7.11573 5.66161C7.10895 5.66597 7.10084 5.66778 7.09285 5.6667C7.08485 5.66561 7.07751 5.66171 7.07214 5.6557C7.06677 5.64968 7.06372 5.64194 7.06355 5.63388C7.06337 5.62582 7.06608 5.61796 7.07119 5.61171L7.06852 5.61216Z" fill="#007CBA"/>
</svg>
