<svg width="20" height="20" viewBox="0 0 20 20" fill="none" xmlns="http://www.w3.org/2000/svg">
<g clip-path="url(#clip0)">
<path d="M14.4787 6.94052L14.4714 6.93739C14.4673 6.93583 14.4631 6.93426 14.4594 6.93061C14.4534 6.92418 14.449 6.91647 14.4465 6.90806C14.444 6.89965 14.4434 6.89077 14.4448 6.8821L14.848 4.41699L16.7389 6.30834L14.7724 7.14499C14.7669 7.1472 14.7611 7.14826 14.7552 7.14812H14.7474C14.7448 7.14656 14.7421 7.14447 14.7369 7.13925C14.6637 7.05777 14.5762 6.99041 14.4787 6.94052V6.94052ZM17.2213 6.7903L19.2431 8.81204C19.663 9.23246 19.8732 9.44214 19.9499 9.68521C19.9613 9.7212 19.9707 9.75719 19.978 9.79423L15.1464 7.74797C15.1438 7.7469 15.1412 7.74585 15.1386 7.74484C15.1193 7.73701 15.0968 7.72815 15.0968 7.70833C15.0968 7.6885 15.1198 7.67912 15.1391 7.67129L15.1453 7.66868L17.2213 6.7903V6.7903ZM19.8956 10.4431C19.7913 10.6392 19.5879 10.8427 19.2436 11.1874L16.9642 13.4663L14.0161 12.8524L14.0004 12.8493C13.9743 12.8451 13.9467 12.8404 13.9467 12.8169C13.9355 12.6953 13.8994 12.5773 13.8406 12.4703C13.7818 12.3632 13.7016 12.2694 13.605 12.1947C13.593 12.1827 13.5962 12.1639 13.5998 12.1467C13.5998 12.1441 13.5998 12.1415 13.6009 12.1394L14.1553 8.73537L14.1574 8.72389C14.1606 8.69781 14.1652 8.66756 14.1887 8.66756C14.3075 8.65278 14.4222 8.6145 14.5261 8.55494C14.63 8.49539 14.721 8.41576 14.7938 8.32069C14.7985 8.31547 14.8016 8.30974 14.8079 8.30661C14.8246 8.29878 14.8444 8.30661 14.8616 8.31391L19.8951 10.4431H19.8956ZM16.44 13.9905L12.6917 17.7388L13.3333 13.7955L13.3343 13.7902C13.3349 13.785 13.3359 13.7798 13.3375 13.7751C13.3427 13.7626 13.3562 13.7574 13.3693 13.7522L13.3755 13.7496C13.516 13.6896 13.6403 13.5972 13.7381 13.4799C13.7506 13.4653 13.7657 13.4512 13.785 13.4486C13.79 13.4478 13.7951 13.4478 13.8001 13.4486L16.4394 13.9911L16.44 13.9905ZM11.8984 18.5322L11.4758 18.9547L6.80487 12.204C6.80318 12.2016 6.80144 12.1991 6.79965 12.1967C6.79235 12.1868 6.78453 12.1769 6.78609 12.1654C6.78661 12.1571 6.79183 12.1498 6.79757 12.1435L6.80278 12.1368C6.81687 12.1159 6.82886 12.095 6.8419 12.0726L6.85234 12.0543L6.8539 12.0528C6.8612 12.0403 6.86798 12.0283 6.8805 12.0215C6.89146 12.0163 6.90658 12.0184 6.91858 12.021L12.0934 13.0882C12.1079 13.0904 12.1215 13.0963 12.1331 13.1054C12.1399 13.1122 12.1414 13.1195 12.143 13.1278C12.1791 13.2644 12.2463 13.3908 12.3393 13.4971C12.4323 13.6034 12.5486 13.6868 12.6792 13.7407C12.6938 13.748 12.6875 13.7642 12.6808 13.7814C12.6774 13.7889 12.6748 13.7968 12.6729 13.8049C12.6077 14.2013 12.0486 17.6115 11.8984 18.5322ZM11.0158 19.4142C10.7044 19.7225 10.5208 19.8857 10.3132 19.9515C10.1085 20.0162 9.88882 20.0162 9.68413 19.9515C9.44106 19.8743 9.23086 19.6646 8.81097 19.2442L4.12016 14.5534L5.34542 12.6531C5.35115 12.6438 5.35689 12.6354 5.36628 12.6286C5.37932 12.6192 5.3981 12.6234 5.41375 12.6286C5.69498 12.7135 5.99692 12.6982 6.26814 12.5853C6.28222 12.5801 6.2963 12.5765 6.30726 12.5864C6.31273 12.5914 6.31763 12.597 6.32186 12.6031L11.0158 19.4147V19.4142ZM3.66793 14.1011L2.59186 13.0251L4.71688 12.1185C4.72231 12.1161 4.72817 12.1149 4.73409 12.1149C4.75183 12.1149 4.76226 12.1326 4.77165 12.1488C4.79301 12.1816 4.81563 12.2136 4.83946 12.2447L4.84624 12.2531C4.8525 12.2619 4.84833 12.2708 4.84207 12.2792L3.66845 14.1011H3.66793ZM2.11563 12.5488L0.754242 11.1874C0.522649 10.9558 0.354692 10.7879 0.237852 10.6434L4.37732 11.502C4.38252 11.5029 4.38773 11.5038 4.39296 11.5046C4.41852 11.5087 4.44669 11.5134 4.44669 11.5374C4.44669 11.5635 4.41591 11.5755 4.38983 11.5854L4.37784 11.5906L2.11563 12.5488ZM0 9.94341C0.00471748 9.85571 0.0204904 9.76896 0.0469445 9.68521C0.124142 9.44214 0.333828 9.23246 0.754242 8.81204L2.49641 7.06988C3.29855 8.23404 4.10287 9.3967 4.90935 10.5579C4.92344 10.5766 4.93909 10.5975 4.92292 10.6131C4.84676 10.6971 4.77061 10.7889 4.71688 10.8886C4.71105 10.9014 4.70208 10.9125 4.6908 10.9209C4.68402 10.9251 4.67672 10.9235 4.66889 10.9219H4.66785L0 9.94289V9.94341ZM2.96272 6.60356L5.30525 4.26103C5.52537 4.35753 6.32656 4.69605 7.04324 4.99858C7.58571 5.22809 8.0802 5.43673 8.23563 5.50454C8.25128 5.5108 8.26537 5.51706 8.27215 5.53271C8.27632 5.5421 8.27423 5.55409 8.27215 5.564C8.23507 5.7331 8.24058 5.90875 8.2882 6.07518C8.33582 6.24162 8.42404 6.39361 8.54495 6.5175C8.56059 6.53315 8.54495 6.55558 8.53138 6.57488L8.52408 6.58583L6.14556 10.2699C6.1393 10.2804 6.13356 10.2892 6.12313 10.296C6.11061 10.3038 6.09288 10.3002 6.07827 10.2965C5.98576 10.2723 5.89066 10.2593 5.79504 10.2579C5.7095 10.2579 5.61665 10.2736 5.52276 10.2908H5.52224C5.51181 10.2924 5.50242 10.2944 5.49407 10.2882C5.48486 10.2807 5.47693 10.2717 5.4706 10.2616L2.96272 6.60356V6.60356ZM5.77835 3.78794L8.81097 0.75532C9.23086 0.335428 9.44106 0.125221 9.68413 0.0485446C9.88882 -0.0161815 10.1085 -0.0161815 10.3132 0.0485446C10.5563 0.125221 10.7665 0.335428 11.1864 0.75532L11.8436 1.41254L9.68674 4.75291C9.68141 4.76263 9.67413 4.77115 9.66536 4.77794C9.65232 4.78681 9.63406 4.78316 9.61841 4.77794C9.44836 4.72634 9.2683 4.71694 9.0938 4.75057C8.9193 4.7842 8.75562 4.85983 8.61693 4.97094C8.60284 4.98554 8.58198 4.9772 8.56425 4.96937C8.28258 4.8468 6.09183 3.92095 5.77835 3.78794V3.78794ZM12.3016 1.87051L14.293 3.862L13.8132 6.83411V6.84194C13.8127 6.84871 13.8113 6.85539 13.809 6.86176C13.8038 6.87219 13.7933 6.87428 13.7829 6.87741C13.6803 6.90849 13.5837 6.95662 13.4971 7.01981C13.4933 7.02246 13.4899 7.02543 13.4866 7.02867C13.4809 7.03493 13.4752 7.04067 13.4658 7.04171C13.4581 7.04195 13.4505 7.04071 13.4433 7.03806L10.4086 5.74865L10.4029 5.74604C10.3836 5.73822 10.3607 5.72883 10.3607 5.70901C10.3428 5.5399 10.2876 5.37687 10.199 5.23174C10.1844 5.20775 10.1682 5.18271 10.1807 5.15819L12.3016 1.87051V1.87051ZM10.2506 6.35945L13.0954 7.56436C13.1111 7.57166 13.1283 7.57845 13.1351 7.59462C13.1378 7.60434 13.1378 7.61462 13.1351 7.62435C13.1267 7.66608 13.1194 7.71354 13.1194 7.76153V7.84134C13.1194 7.86116 13.0991 7.8695 13.0803 7.87733L13.0746 7.87941C12.6239 8.07188 6.74749 10.5777 6.73863 10.5777C6.72976 10.5777 6.72037 10.5777 6.7115 10.5688C6.69585 10.5532 6.7115 10.5313 6.72559 10.5114C6.72807 10.508 6.73051 10.5045 6.73289 10.501L9.07073 6.88106L9.0749 6.8748C9.08846 6.85289 9.10411 6.82838 9.12914 6.82838L9.15262 6.83203C9.20582 6.83933 9.25277 6.84611 9.30023 6.84611C9.65492 6.84611 9.98354 6.67346 10.1817 6.37823C10.1865 6.37035 10.1925 6.3633 10.1995 6.35737C10.2136 6.34693 10.2344 6.35215 10.2506 6.35945V6.35945ZM6.99265 11.1504L13.398 8.41875C13.398 8.41875 13.4074 8.41875 13.4162 8.42762C13.4512 8.46257 13.4809 8.48604 13.5096 8.50795L13.5237 8.51681C13.5367 8.52412 13.5498 8.53246 13.5508 8.54602C13.5508 8.55124 13.5508 8.55437 13.5498 8.55907L13.001 11.9297L12.9989 11.9432C12.9953 11.9693 12.9916 11.9991 12.9671 11.9991C12.8208 12.0089 12.6791 12.0543 12.5544 12.1313C12.4296 12.2083 12.3254 12.3145 12.251 12.4409L12.2483 12.445C12.241 12.457 12.2343 12.4685 12.2223 12.4748C12.2113 12.48 12.1972 12.4779 12.1858 12.4753L7.07767 11.4216C7.07245 11.4206 6.99838 11.1509 6.99265 11.1504V11.1504Z" fill="#007CBA"/>
</g>
<defs>
<clipPath id="clip0">
<rect width="19.978" height="20" fill="white"/>
</clipPath>
</defs>
</svg>
