<svg width="22" height="20" viewBox="0 0 22 20" fill="none" xmlns="http://www.w3.org/2000/svg">
<path d="M0 0.276653V0C1.30422 0 3.04318 0 4.78214 0C9.76189 0 11.8565 2.76653 11.8565 6.32349C11.8565 10.9475 8.49719 12.8841 4.46597 12.8841H3.20127V19.7609V19.998H0.237131C0.237131 19.998 0 20.0376 0 19.7609V0V0.276653ZM3.28031 9.91998H4.7031C6.79776 9.91998 8.85289 9.20859 8.85289 6.32349C8.85289 3.4384 7.39058 2.84557 4.90071 2.84557C4.32174 2.80567 3.74071 2.80567 3.16175 2.84557L3.28031 9.91998ZM14.8602 8.26006C14.8602 8.26006 14.8602 7.54867 14.8602 6.5211C16.9665 5.70681 19.2022 5.27841 21.4604 5.2564C21.4604 5.2564 21.4604 5.2564 21.4604 5.2564V7.90437C20.3023 7.82638 19.1395 7.94667 18.022 8.26006V19.7609H15.0578H14.8602V8.26006Z" fill="#B12851"/>
</svg>
