<svg width="23" height="20" viewBox="0 0 23 20" fill="none" xmlns="http://www.w3.org/2000/svg">
<path d="M0 0.270469C0 0.270469 0.347746 0 0.5023 0C1.66145 0 3.36154 0 5.06163 0C9.93008 0 11.862 2.70469 11.862 6.18215C11.862 10.7028 8.57773 12.5961 4.55934 12.5961H3.20699V19.3192V19.551H0.231831C0.231831 19.551 0 19.5897 0 19.3192V0.270469ZM3.09107 9.69825H4.5207C6.56853 9.69825 8.38454 9.00276 8.38454 6.18215C8.38454 3.36154 6.99356 2.78197 4.5207 2.78197C3.95466 2.74332 3.38664 2.74332 2.82061 2.78197L3.09107 9.69825ZM18.3919 7.72769C17.0009 7.72769 16.5759 8.46182 16.5759 9.00275C16.5759 9.54369 16.9236 10.0846 18.7783 11.0506C21.5216 12.4029 22.4489 13.678 22.4489 15.6099C22.4489 18.4305 20.3238 19.9761 17.3487 19.9761C16.0137 20.0856 14.6749 19.8178 13.4848 19.2033C13.4848 19.2033 13.4848 19.2033 13.4848 18.9328V16.1509C13.4848 16.1509 13.4848 16.1509 13.7166 16.1509C14.7496 16.8644 15.9773 17.2422 17.2327 17.2327C18.6624 17.2327 19.2419 16.6532 19.2419 15.919C19.2419 15.1849 18.7783 14.6826 17.0395 13.7939C14.5281 12.5575 13.4848 11.3597 13.4848 9.31186C13.4792 8.69133 13.6071 8.07686 13.8599 7.51012C14.1127 6.94338 14.4844 6.43763 14.9498 6.02718C15.4152 5.61673 15.9635 5.31118 16.5574 5.13125C17.1513 4.95132 17.7769 4.90122 18.3919 4.98436C19.471 4.93717 20.5486 5.10801 21.5602 5.48666C21.5842 5.50465 21.6037 5.52799 21.6171 5.55481C21.6305 5.58164 21.6375 5.61122 21.6375 5.64121C21.6375 5.6712 21.6305 5.70078 21.6171 5.72761C21.6037 5.75444 21.5842 5.77777 21.5602 5.79577V8.19135C21.5602 8.19135 21.5602 8.42318 21.2898 8.19135C20.3804 7.83557 19.4057 7.67751 18.4305 7.72769H18.3919Z" fill="#B12851"/>
</svg>
