<svg width="33" height="20" viewBox="0 0 33 20" fill="none" xmlns="http://www.w3.org/2000/svg">
<path fill-rule="evenodd" clip-rule="evenodd" d="M1.00574 20H12.3563C12.3563 20 10.1868 10.1005 17.3707 6.09192C18.9368 5.33043 23.9224 2.4856 32.0833 8.52008C32.3419 8.30456 32.5862 8.13215 32.5862 8.13215C32.5862 8.13215 25.1149 0.675253 16.796 1.50859C12.6149 1.88215 7.47126 5.68962 4.45401 10.7184C1.43677 15.7471 1.00574 20 1.00574 20Z" fill="#37A268"/>
<path fill-rule="evenodd" clip-rule="evenodd" d="M1.00574 20H12.3563C12.3563 20 10.1868 10.1005 17.3707 6.09192C18.9368 5.33043 23.9224 2.4856 32.0833 8.52008C32.3419 8.30456 32.5862 8.13215 32.5862 8.13215C32.5862 8.13215 25.1149 0.675253 16.796 1.50859C12.6149 1.88215 7.47126 5.68962 4.45401 10.7184C1.43677 15.7471 1.00574 20 1.00574 20Z" fill="#37A268"/>
<path fill-rule="evenodd" clip-rule="evenodd" d="M1.00574 20H12.3563C12.3563 20 10.1868 10.1005 17.3707 6.09191C18.9368 5.33042 23.9224 2.48559 32.0833 8.52007C32.3419 8.30455 32.5862 8.13214 32.5862 8.13214C32.5862 8.13214 25.1149 0.675242 16.796 1.50858C12.6006 1.88214 7.45689 5.68961 4.43965 10.7183C1.4224 15.7471 1.00574 20 1.00574 20ZM24.6552 2.31317L24.7126 1.35053C24.5833 1.27869 24.2241 1.10628 23.319 0.847656L23.2615 1.79593C23.7356 1.95398 24.1954 2.12639 24.6552 2.31317Z" fill="#37A268"/>
<path fill-rule="evenodd" clip-rule="evenodd" d="M23.2902 5.3592L23.2328 6.26437C23.7069 6.27874 24.181 6.33621 24.6552 6.43678L24.7126 5.54598C24.2241 5.4454 23.75 5.38793 23.2902 5.3592ZM17.9741 0.876437H18.1178L17.8305 0C17.3851 0 16.9253 0.0287356 16.4512 0.0862069L16.7241 0.933908C17.1408 0.890805 17.5575 0.876437 17.9741 0.876437ZM18.6638 6.16379L18.9943 7.15517C19.4109 6.95402 19.8276 6.78161 20.2443 6.6523L19.9282 5.70402C19.4397 5.8477 19.023 6.00575 18.6638 6.16379ZM12.1408 2.38506L11.4943 1.39368C11.1351 1.58046 10.7615 1.78161 10.3736 2.01149L11.0345 3.01724C11.408 2.78736 11.7672 2.57184 12.1408 2.38506ZM15.0862 8.85058L15.7759 9.88506C16.0201 9.52586 16.3075 9.1954 16.6236 8.86494L15.977 7.88793C15.6466 8.18966 15.3448 8.52012 15.0862 8.85058ZM13.0029 13.477L14.1667 14.3966C14.2241 13.8362 14.3247 13.2759 14.4684 12.7155L13.4339 11.8966C13.2471 12.4282 13.1178 12.9598 13.0029 13.477ZM6.70977 6.6523L5.68966 5.76149C5.31609 6.12069 4.9569 6.47989 4.62644 6.83908L5.73276 7.78736C6.03448 7.39943 6.36494 7.01149 6.70977 6.6523ZM2.37069 13.0747L0.718391 12.4713C0.445402 13.0891 0.143678 13.8075 0 14.1954L1.6523 14.7989C1.83908 14.3103 2.1408 13.6063 2.37069 13.0747ZM12.7874 17.1264C12.8161 17.8879 12.8879 18.5057 12.9598 18.9368L14.6839 19.5546C14.5546 18.9943 14.4253 18.3621 14.3391 17.6868L12.7874 17.1264Z" fill="#37A268"/>
</svg>
