<svg width="23" height="20" viewBox="0 0 23 20" fill="none" xmlns="http://www.w3.org/2000/svg">
<path d="M18.7462 6.48124C18.5041 6.40089 18.262 6.325 18.02 6.25357C18.0603 6.0884 18.0962 5.92323 18.132 5.75806C18.6834 3.09749 18.3203 0.959212 17.0966 0.253892C15.9176 -0.420179 13.9946 0.280677 12.0492 1.96809C11.8564 2.13326 11.6682 2.30735 11.4889 2.48145C11.3678 2.36539 11.2423 2.24932 11.1168 2.13772C9.07723 0.334245 7.03317 -0.424643 5.80943 0.285141C4.63499 0.963676 4.28535 2.97696 4.77843 5.49468C4.82774 5.74467 4.88153 5.99019 4.94429 6.24018C4.6574 6.32053 4.375 6.40981 4.11053 6.50356C1.71683 7.32941 0 8.63291 0 9.98105C0 11.3738 1.82889 12.7711 4.31673 13.6193C4.51844 13.6862 4.72016 13.7532 4.92636 13.8112C4.85912 14.079 4.80085 14.3424 4.74705 14.6147C4.27638 17.0923 4.64395 19.0565 5.81839 19.7305C7.02869 20.4269 9.06378 19.7127 11.0451 17.9851C11.202 17.8467 11.3589 17.7039 11.5158 17.5521C11.713 17.744 11.9192 17.9271 12.1254 18.1056C14.0439 19.7484 15.9401 20.4135 17.11 19.7395C18.3203 19.0431 18.7148 16.9316 18.2038 14.3603C18.1634 14.1639 18.1186 13.963 18.0693 13.7576C18.2127 13.7175 18.3517 13.6728 18.4907 13.6282C21.0771 12.7755 22.9508 11.3962 22.9508 9.98105C22.9508 8.62845 21.1847 7.31602 18.7462 6.48124V6.48124ZM12.6812 2.69126C14.3487 1.24491 15.9042 0.677977 16.6124 1.08421C17.37 1.51722 17.6614 3.26712 17.1862 5.56611C17.1548 5.71789 17.1235 5.8652 17.0831 6.01251C16.088 5.78931 15.0794 5.62861 14.0663 5.53932C13.4836 4.70901 12.8471 3.91441 12.1568 3.16892C12.3316 3.00375 12.5019 2.8475 12.6812 2.69126V2.69126ZM7.49488 12.2979C7.72349 12.6863 7.95658 13.0746 8.20312 13.4541C7.50384 13.3782 6.80904 13.2666 6.12321 13.1193C6.32044 12.4765 6.56698 11.8113 6.85387 11.1328C7.06007 11.5256 7.27075 11.914 7.49488 12.2979V12.2979ZM6.13665 6.92764C6.78215 6.78479 7.46798 6.66873 8.18071 6.57945C7.94314 6.94996 7.71004 7.32941 7.49039 7.71332C7.27075 8.09276 7.05558 8.48113 6.85387 8.87397C6.57146 8.20882 6.33389 7.55707 6.13665 6.92764ZM7.36488 10.0034C7.66073 9.38733 7.98348 8.78469 8.32415 8.19097C8.66483 7.59725 9.0324 7.02139 9.4179 6.45445C10.0903 6.40535 10.7761 6.37856 11.4754 6.37856C12.1747 6.37856 12.865 6.40535 13.5329 6.45445C13.9139 7.01692 14.277 7.59279 14.6222 8.18204C14.9673 8.77129 15.2901 9.37394 15.5949 9.98552C15.2946 10.6016 14.9718 11.2087 14.6267 11.8068C14.286 12.4006 13.9229 12.9764 13.5419 13.5478C12.874 13.5969 12.1792 13.6193 11.4754 13.6193C10.7716 13.6193 10.0903 13.5969 9.43135 13.5568C9.04137 12.9898 8.6738 12.4095 8.32864 11.8158C7.98348 11.2221 7.66522 10.6194 7.36488 10.0034ZM15.4604 12.289C15.689 11.8961 15.9042 11.4988 16.1149 11.0971C16.4018 11.7444 16.6528 12.4006 16.8724 13.0746C16.1776 13.2309 15.4739 13.3514 14.7656 13.4318C15.0077 13.0568 15.2363 12.6729 15.4604 12.289ZM16.1059 8.87397C15.8952 8.48113 15.6801 8.0883 15.4559 7.70439C15.2363 7.32494 15.0077 6.94996 14.7701 6.57945C15.4918 6.66873 16.1821 6.78926 16.8276 6.93657C16.6214 7.59725 16.3794 8.24007 16.1059 8.87397V8.87397ZM11.4844 3.85191C11.955 4.36082 12.3988 4.8965 12.8112 5.45004C11.9237 5.40987 11.0316 5.40987 10.1441 5.45004C10.5834 4.87418 11.0361 4.3385 11.4844 3.85191ZM6.28458 1.11545C7.03765 0.677977 8.70966 1.30294 10.4713 2.85643C10.5834 2.95464 10.6954 3.06178 10.812 3.16892C10.1172 3.91441 9.47618 4.70901 8.88896 5.53932C7.8759 5.62861 6.8718 5.78485 5.87667 6.00359C5.81839 5.77592 5.76908 5.54379 5.71977 5.31166C5.29841 3.15106 5.57633 1.52168 6.28458 1.11545V1.11545ZM5.18635 12.8827C4.99808 12.8291 4.81429 12.7711 4.63051 12.7086C3.67572 12.4095 2.59093 11.9363 1.80648 11.3158C1.35374 11.0033 1.04892 10.5212 0.963755 9.98105C0.963755 9.16413 2.38025 8.11954 4.42431 7.40976C4.67982 7.32048 4.93981 7.24013 5.19979 7.16424C5.50461 8.13294 5.87218 9.08378 6.29803 10.0034C5.8677 10.9364 5.49565 11.9006 5.18635 12.8827V12.8827ZM10.413 17.2574C9.67341 17.9315 8.81724 18.4672 7.88486 18.8333C7.38729 19.0699 6.81352 19.0922 6.30251 18.8913C5.58978 18.4806 5.29393 16.9048 5.69736 14.7844C5.74667 14.5344 5.80046 14.2844 5.86322 14.0389C6.86732 14.2531 7.88038 14.4005 8.90689 14.4763C9.49859 15.3111 10.1486 16.1102 10.8434 16.8601C10.6999 16.9985 10.5565 17.1325 10.413 17.2574ZM11.5113 16.1727C11.054 15.6816 10.5968 15.137 10.153 14.5522C10.5834 14.5701 11.0272 14.579 11.4754 14.579C11.9371 14.579 12.3899 14.5701 12.8381 14.5478C12.4257 15.1147 11.9819 15.6549 11.5113 16.1727V16.1727ZM17.37 17.5119C17.3297 18.0565 17.0607 18.5654 16.6304 18.9091C15.9176 19.3198 14.3981 18.7842 12.7574 17.3824C12.5692 17.2217 12.3809 17.0476 12.1881 16.8691C12.874 16.1147 13.506 15.3156 14.0798 14.4763C15.1063 14.3915 16.1283 14.2353 17.1369 14.0076C17.1817 14.1906 17.2221 14.3737 17.2579 14.5522C17.4776 15.5165 17.5134 16.5209 17.37 17.5119V17.5119ZM18.1858 12.713C18.0603 12.7532 17.9348 12.7934 17.8048 12.8291C17.491 11.856 17.1055 10.9051 16.6618 9.98105C17.0921 9.07039 17.4552 8.13294 17.76 7.17317C17.9931 7.24013 18.2172 7.31155 18.4324 7.38298C20.5213 8.09722 21.9871 9.15967 21.9871 9.97212C21.9871 10.8471 20.4226 11.9765 18.1858 12.713ZM11.4754 12.0434C12.6095 12.0434 13.5284 11.1283 13.5284 9.99891C13.5284 8.8695 12.6095 7.95437 11.4754 7.95437C10.3413 7.95437 9.42239 8.8695 9.42239 9.99891C9.42239 11.1283 10.3413 12.0434 11.4754 12.0434Z" fill="#37A268"/>
</svg>
