<svg width="27" height="20" viewBox="0 0 27 20" fill="none" xmlns="http://www.w3.org/2000/svg">
<path d="M12.6099 15.1203C12.5974 15.1453 12.5849 15.1653 12.6099 15.1203V15.1203ZM23.018 11.4956C22.1777 11.4953 21.3486 11.6877 20.5949 12.058C20.3484 11.5622 20.0935 11.1289 20.0518 10.8039C20.0016 10.4248 19.9473 10.1998 20.0058 9.74986C20.0643 9.2999 20.3275 8.66245 20.3233 8.61662C20.3191 8.57079 20.2648 8.34164 19.7259 8.33748C19.187 8.33331 18.7232 8.44164 18.6693 8.58329C18.5742 8.84216 18.5001 9.10829 18.4479 9.37906C18.3518 9.86652 17.3705 11.608 16.8148 12.5163C16.631 12.1622 16.4764 11.8497 16.443 11.5997C16.3929 11.2206 16.3386 10.9956 16.3971 10.5456C16.4556 10.0957 16.7188 9.45822 16.7146 9.41239C16.7104 9.36656 16.6561 9.13741 16.1176 9.13325C15.5791 9.12908 15.1149 9.2374 15.0606 9.37906C15.0063 9.52071 14.9478 9.85402 14.8392 10.1748C14.7306 10.4956 13.4234 13.3954 13.0812 14.1495C12.9057 14.5328 12.7553 14.8411 12.6467 15.0494C12.63 15.0828 12.6175 15.1036 12.6091 15.1203C12.6216 15.0994 12.63 15.0786 12.63 15.0869C12.5381 15.2661 12.4838 15.3661 12.4838 15.3661V15.3702C12.4128 15.5036 12.3334 15.6244 12.2958 15.6244C12.2707 15.6244 12.2164 15.2744 12.3083 14.7953C12.5047 13.787 12.9684 12.2205 12.9642 12.1663C12.96 12.1372 13.052 11.8664 12.6592 11.7205C12.2791 11.583 12.1412 11.8122 12.1078 11.8122C12.0744 11.8122 12.0493 11.8955 12.0493 11.8955C12.0493 11.8955 12.4712 10.129 11.2392 10.129C10.4705 10.129 9.40102 10.9706 8.87546 11.733C8.54542 11.9122 7.83103 12.2997 7.07903 12.7121C6.79077 12.8704 6.49415 13.0329 6.21424 13.1871C6.19335 13.1662 6.17664 13.1454 6.15575 13.1246C4.66054 11.533 1.89989 10.4081 2.01686 8.27082C2.05864 7.49171 2.3302 5.44605 7.32552 2.96292C11.4197 0.929748 14.693 1.48804 15.2565 2.7296C16.067 4.50029 13.5065 7.79585 9.2548 8.27082C7.63426 8.44997 6.78242 7.82502 6.56935 7.5917C6.34793 7.34589 6.31451 7.33339 6.23095 7.37922C6.09309 7.45422 6.18082 7.67086 6.23095 7.80002C6.35629 8.12916 6.8785 8.71245 7.76794 9.00409C8.54918 9.25824 10.4492 9.39989 12.7466 8.51246C15.3276 7.52088 17.3366 4.7586 16.7476 2.44629C16.1477 0.096482 12.2406 -0.674289 8.54626 0.633938C6.34501 1.41304 3.96453 2.63794 2.25207 4.23364C0.217929 6.13349 -0.107517 7.78752 0.0261709 8.47913C0.502016 10.9331 3.89351 12.533 5.25086 13.7162C5.18401 13.7537 5.12135 13.787 5.06286 13.8204C4.3823 14.1578 1.7967 15.5077 1.14957 16.9326C0.418461 18.5491 1.27072 19.7074 1.83012 19.8657C3.576 20.349 5.36365 19.4782 6.32412 18.0492C7.28458 16.6201 7.16802 14.7536 6.72518 13.9037C6.721 13.8912 6.71265 13.8829 6.70847 13.8704C6.88393 13.7662 7.06358 13.662 7.24322 13.5579C7.58956 13.3537 7.92795 13.1662 8.22457 13.0038C8.05746 13.4537 7.93631 13.9953 7.87364 14.7786C7.79844 15.6952 8.17862 16.8826 8.67159 17.3492C8.88883 17.5534 9.15161 17.5576 9.31454 17.5576C9.89107 17.5576 10.1501 17.0826 10.4379 16.516C10.793 15.8244 11.1064 15.0203 11.1064 15.0203C11.1064 15.0203 10.7137 17.1951 11.7873 17.1951C12.1796 17.1951 12.5723 16.691 12.7482 16.4327V16.4368C12.7482 16.4368 12.7566 16.4202 12.7775 16.3868C12.8193 16.3243 12.8401 16.2868 12.8401 16.2868V16.2743C12.9989 16.0035 13.3456 15.3827 13.8674 14.3578C14.5442 13.0329 15.1914 11.3789 15.1914 11.3789C15.2539 11.7425 15.3404 12.1016 15.4504 12.4538C15.5674 12.8496 15.8139 13.2829 16.0102 13.7037C15.8515 13.9204 15.7554 14.0453 15.7554 14.0453C15.7557 14.0485 15.7572 14.0515 15.7595 14.0537C15.6342 14.2203 15.4922 14.3995 15.346 14.5745C14.8116 15.2078 14.1762 15.9327 14.0926 16.141C13.9924 16.3868 14.0174 16.5701 14.2096 16.7118C14.3516 16.8201 14.6023 16.8368 14.8651 16.816C15.3455 16.7826 15.6839 16.666 15.8469 16.591C16.1472 16.4836 16.4311 16.3349 16.6903 16.1493C17.2126 15.766 17.5301 15.2161 17.5008 14.4911C17.4841 14.0912 17.3546 13.6912 17.1959 13.3162C17.2418 13.2496 17.2919 13.1787 17.3379 13.1079C18.1647 11.9039 18.8039 10.5823 18.8039 10.5823C18.8664 10.9459 18.9529 11.305 19.0629 11.6572C19.1632 11.9947 19.3591 12.3655 19.5387 12.728C18.7621 13.3571 18.2817 14.0862 18.1145 14.5653C17.8054 15.4527 18.0477 15.8527 18.5031 15.9444C18.7078 15.986 19.0002 15.8902 19.2175 15.7985C19.5401 15.6914 19.8443 15.5354 20.1194 15.3361C20.6417 14.9528 21.1467 14.4153 21.1133 13.6862C21.1008 13.3571 21.0089 13.0279 20.8877 12.7113C21.5436 12.4363 22.3955 12.2863 23.4817 12.4113C25.8079 12.6821 26.2632 14.132 26.1755 14.7361C26.0878 15.3402 25.599 15.6777 25.436 15.7777C25.2731 15.8777 25.223 15.9152 25.2355 15.9902C25.2564 16.0985 25.3316 16.0943 25.4695 16.0693C25.6616 16.036 26.6889 15.5777 26.7349 14.457C26.8017 13.0404 25.436 11.4822 23.0167 11.4947L23.018 11.4956ZM5.08792 17.5242C4.31964 18.3617 3.24178 18.6783 2.77847 18.4117C2.28132 18.1233 2.47767 16.8909 3.4256 15.9985C4.00213 15.4569 4.74535 14.9569 5.23832 14.6486C5.35112 14.582 5.51405 14.482 5.71458 14.3612C5.74801 14.3403 5.76472 14.332 5.76472 14.332C5.80232 14.307 5.84409 14.2862 5.88587 14.2612C6.23221 15.5277 5.89841 16.6443 5.08792 17.5234V17.5242ZM10.7011 13.7162C10.4338 14.3703 9.87018 16.0368 9.52761 15.9494C9.23517 15.8744 9.05552 14.6036 9.46912 13.3537C9.67801 12.7246 10.1208 11.9747 10.384 11.683C10.8056 11.2122 11.2693 11.0623 11.3779 11.2497C11.5242 11.4956 10.8682 13.3079 10.7011 13.7162ZM15.3384 15.9244C15.2256 15.9827 15.1212 16.0202 15.0711 15.991C15.0335 15.9702 15.117 15.891 15.117 15.891C15.117 15.891 15.6977 15.2702 15.9275 14.9869C16.0612 14.8203 16.2158 14.6245 16.3824 14.4078C16.3824 14.4286 16.3866 14.4495 16.3866 14.4745C16.3812 15.2202 15.663 15.7244 15.3372 15.9244H15.3384ZM18.9137 15.1119C18.8302 15.0536 18.8427 14.8578 19.1226 14.2495C19.2313 14.012 19.4815 13.612 19.9164 13.2287C19.9656 13.3738 19.9924 13.5256 19.9958 13.6787C19.9916 14.6161 19.319 14.9661 18.9142 15.1119H18.9137Z" fill="#007CBA"/>
</svg>
