<svg width="23" height="20" viewBox="0 0 23 20" fill="none" xmlns="http://www.w3.org/2000/svg">
<path d="M0.825893 5.8125L0 6.92411H4.04018L4.34821 1.08929L0.825893 5.8125ZM17.2902 0.611607L11.5491 0L17.6071 6.57143L17.2902 0.611607V0.611607ZM4.60714 8.31696L4.10714 7.33482H0.0401786L10.0804 19.0179L4.60714 8.31696ZM4.69643 6.92411H17.375L13.7366 2.97321L11.0402 0.0446429L4.69643 6.92411ZM17.9687 7.33036L11.9911 19.0179L22.0268 7.33482H17.9687V7.33036ZM18.1429 1.65179L17.7232 1.08929L17.7634 1.86161L18.0357 6.92411H22.067L18.1429 1.65179ZM4.66518 2.74554L4.45982 6.56696L10.5223 0L4.78125 0.611607L4.66518 2.74554ZM17.5089 7.33036H4.5625L6.45536 11.0313L11.0402 20L17.5089 7.33036V7.33036Z" fill="#B12851"/>
</svg>
