<svg width="20" height="20" viewBox="0 0 20 20" fill="none" xmlns="http://www.w3.org/2000/svg">
<path d="M17.5154 0H2.50645C1.12252 0 0.00198413 1.12054 0.00198413 2.5C-0.00248016 2.5 0.00198413 2.32143 0.00198413 17.5C0.00198413 18.8795 1.12252 20 2.50198 20H17.5109C18.8859 19.9911 19.9975 18.875 19.9975 17.5V2.5C20.002 1.125 18.8904 0.00892857 17.5154 0V0ZM8.79663 15.1473C8.7877 15.8036 8.25645 16.3348 7.59573 16.3348H3.90377C3.24306 16.3393 2.70288 15.808 2.69841 15.1473V3.79911C2.69841 3.13839 3.23413 2.59821 3.89931 2.59821H7.6002C8.26091 2.59821 8.80109 3.13393 8.80109 3.79911V15.1473H8.79663ZM17.4172 10.1473C17.4172 10.808 16.8814 11.3482 16.2163 11.3482H12.6002C11.9395 11.3482 11.3993 10.8125 11.3993 10.1473V3.80357C11.3993 3.14286 11.935 2.60268 12.5957 2.60268H16.2163C16.877 2.60268 17.4172 3.13839 17.4172 3.80357V10.1473Z" fill="#B12851"/>
</svg>
