<svg width="22" height="20" viewBox="0 0 22 20" fill="none" xmlns="http://www.w3.org/2000/svg">
<path d="M21.3257 1.41366L17.3257 0.0452247C17.0604 -0.0457238 16.764 0.002277 16.5408 0.173226L7.52346 7.087L2.96172 4.33244C2.72761 4.19012 2.43961 4.17075 2.18866 4.28107L0.504427 5.01792C0.197897 5.15181 0 5.45498 0 5.7893V14.2105C0 14.5448 0.197897 14.8479 0.504427 14.9818L2.18866 15.7187C2.43877 15.829 2.72677 15.8088 2.96172 15.6673L7.52262 12.9128L16.54 19.8265C16.6891 19.9411 16.8701 20 17.052 20C17.1438 20 17.2356 19.9848 17.3248 19.9545L21.3249 18.5861C21.666 18.4699 21.895 18.1499 21.895 17.7894V2.2103C21.895 1.84988 21.666 1.52987 21.3257 1.41366ZM3.36846 11.4871V8.5127L5.82997 9.99987L3.36846 11.4871ZM16.8423 13.9721L10.9795 9.99987L16.8423 6.02762V13.9721Z" fill="#007CBA"/>
</svg>
