<svg width="27" height="20" viewBox="0 0 27 20" fill="none" xmlns="http://www.w3.org/2000/svg">
<path d="M9.19593 9.59576L14.3137 19.5514V19.8312H10.9951C10.916 19.8435 10.8352 19.8257 10.7685 19.7813C10.7019 19.7369 10.6544 19.6691 10.6353 19.5913L7.03689 11.9947C5.91738 14.4336 4.71791 17.1124 3.51844 19.5514C3.53902 19.6018 3.54637 19.6566 3.53982 19.7107C3.53326 19.7648 3.513 19.8163 3.48097 19.8603C3.44893 19.9044 3.40618 19.9395 3.35676 19.9624C3.30735 19.9853 3.2529 19.9952 3.19859 19.9912H0C0 19.9912 0 19.9912 0 19.7113L5.07775 9.91562L0.239894 0.279876V0H3.51844C3.71836 0 3.99823 0 3.99823 0.199912C5.15772 2.63883 6.31721 5.07776 7.43671 7.51668C8.51623 5.07776 9.67572 2.63883 10.7952 0.239894C10.7952 0.239894 10.7952 0 11.1551 0H14.0738C14.0738 0 14.0738 0 14.0738 0.279876L9.19593 9.59576ZM15.4332 12.5545C15.3598 11.5653 15.4953 10.5717 15.8307 9.63823C16.1661 8.70476 16.694 7.85222 17.3801 7.13592C18.0663 6.41963 18.8953 5.85556 19.8135 5.48033C20.7317 5.1051 21.7185 4.92707 22.71 4.95781H23.6695V0.239894L23.9894 0H26.7882V16.9525C26.7283 17.5507 26.7283 18.1535 26.7882 18.7517C26.7882 18.7517 26.7882 18.7517 26.7882 18.7517C25.3891 19.4858 23.8479 19.9086 22.2702 19.9912C21.3066 20.0412 20.3439 19.8781 19.4506 19.5133C18.5574 19.1485 17.7557 18.591 17.1027 17.8807C16.4497 17.1704 15.9615 16.3248 15.6729 15.4041C15.3843 14.4834 15.3024 13.5104 15.4332 12.5545V12.5545ZM23.6695 7.99646C23.328 7.85371 22.96 7.78556 22.59 7.79655C20.311 7.79655 18.5918 9.59576 18.5918 12.5145C18.5918 15.4332 20.1511 17.2724 22.2302 17.2724C22.6413 17.3298 23.0585 17.3298 23.4696 17.2724V7.99646H23.6695Z" fill="#B12851"/>
</svg>
