<?xml version="1.0" standalone="no"?>
<!DOCTYPE svg PUBLIC "-//W3C//DTD SVG 20010904//EN"
 "http://www.w3.org/TR/2001/REC-SVG-20010904/DTD/svg10.dtd">
<svg version="1.0" xmlns="http://www.w3.org/2000/svg"
 width="757.000000pt" height="757.000000pt" viewBox="0 0 757.000000 757.000000"
 preserveAspectRatio="xMidYMid meet">
<metadata>
Created by potrace 1.11, written by Peter Selinger 2001-2013
</metadata>
<g transform="translate(0.000000,757.000000) scale(0.100000,-0.100000)"
fill="#000000" stroke="none">
<path d="M3957 7304 c-1 -1 -69 -4 -152 -8 -151 -6 -179 -8 -315 -27 -164 -23
-203 -30 -385 -75 -422 -104 -820 -288 -1197 -556 -68 -48 -132 -95 -143 -105
-11 -10 -52 -44 -90 -76 -122 -102 -227 -210 -246 -252 -46 -100 -8 -216 88
-272 91 -53 208 -31 284 53 115 128 369 322 595 456 276 164 640 306 933 363
248 49 430 67 666 67 83 -1 173 -3 200 -6 28 -3 75 -8 105 -11 75 -8 130 -15
160 -21 14 -2 39 -6 55 -8 99 -14 305 -66 456 -116 594 -196 1142 -595 1512
-1100 94 -128 112 -146 171 -164 125 -40 231 17 277 147 20 58 0 133 -58 215
-26 37 -49 69 -52 72 -4 3 -25 30 -47 60 -23 30 -50 65 -60 76 -11 12 -39 46
-64 75 -70 84 -265 277 -370 365 -533 453 -1171 733 -1865 820 -22 3 -54 7
-70 9 -53 7 -383 23 -388 19z"/>
<path d="M1062 5672 c-74 -24 -106 -66 -212 -282 -88 -177 -134 -290 -196
-478 -80 -243 -122 -432 -159 -714 -27 -207 -27 -714 0 -890 2 -13 6 -44 9
-69 15 -104 40 -235 71 -364 26 -107 112 -379 140 -440 8 -16 27 -59 43 -95
35 -79 65 -113 123 -140 142 -64 305 48 301 207 -1 18 -21 81 -46 140 -37 91
-103 273 -111 308 -9 40 -18 74 -26 95 -4 14 -11 36 -13 50 -3 14 -14 68 -25
120 -11 52 -23 118 -26 145 -3 28 -8 59 -10 70 -18 91 -27 595 -12 735 11 111
44 307 71 429 54 244 159 522 295 784 56 108 71 147 71 181 0 155 -141 257
-288 208z"/>
<path d="M2679 5479 c-60 -9 -102 -38 -165 -113 -28 -34 -106 -128 -175 -211
-68 -82 -131 -159 -141 -170 -9 -11 -67 -81 -128 -155 -62 -74 -128 -155 -148
-179 -21 -24 -48 -57 -62 -74 -96 -116 -245 -296 -260 -314 -113 -133 -214
-262 -229 -292 -38 -76 -22 -157 51 -251 19 -25 102 -133 184 -240 82 -107
257 -334 389 -505 131 -170 268 -348 304 -395 181 -236 194 -248 295 -257 42
-4 61 1 106 24 77 39 115 101 115 188 0 36 -6 74 -15 91 -12 22 -578 765 -898
1176 -29 37 -52 72 -52 78 0 5 78 103 173 217 95 115 219 264 276 333 56 69
120 145 141 170 260 309 456 553 471 585 70 150 -64 320 -232 294z"/>
<path d="M5705 3631 c-101 -25 -165 -107 -165 -210 1 -87 47 -156 130 -194 43
-19 63 -20 521 -20 l477 0 0 -423 c0 -518 -5 -551 -106 -709 -71 -112 -156
-221 -271 -349 -368 -409 -904 -749 -1401 -890 -52 -15 -106 -31 -120 -36 -14
-5 -41 -12 -60 -15 -19 -3 -43 -8 -52 -11 -18 -5 -48 -12 -93 -19 -16 -3 -52
-10 -80 -15 -27 -5 -77 -12 -110 -16 -33 -3 -89 -10 -125 -14 -72 -9 -542 -5
-605 5 -22 3 -83 13 -135 20 -146 22 -156 24 -300 60 -144 36 -292 85 -430
142 -104 42 -339 159 -361 179 -8 8 -19 14 -24 14 -25 0 -327 215 -449 319
-75 64 -256 245 -332 332 -46 53 -100 104 -119 113 -107 51 -237 7 -293 -98
-22 -43 -21 -141 3 -186 50 -97 357 -409 560 -571 245 -194 566 -384 845 -499
117 -48 316 -118 370 -130 19 -5 69 -18 110 -29 99 -27 271 -62 379 -77 25 -3
57 -8 71 -10 164 -26 706 -26 870 0 14 2 46 7 71 10 890 122 1733 608 2288
1321 34 44 68 87 74 95 27 33 126 188 145 225 44 89 85 222 100 325 4 25 7
308 7 630 l0 585 -24 42 c-28 49 -84 91 -135 103 -44 10 -1190 11 -1231 1z"/>
</g>
</svg>
