<svg width="26" height="20" viewBox="0 0 26 20" fill="none" xmlns="http://www.w3.org/2000/svg">
<path d="M10.8963 19.9805L8.51334 19.2891C8.26332 19.2187 8.12268 18.957 8.193 18.707L13.5254 0.338417C13.5957 0.0883983 13.8575 -0.0522373 14.1075 0.0180805L16.4905 0.709539C16.7405 0.779857 16.8812 1.04159 16.8108 1.29161L11.4784 19.6602C11.4042 19.9102 11.1463 20.0547 10.8963 19.9805V19.9805ZM6.44287 15.5974L8.14221 13.7847C8.32191 13.5933 8.3102 13.2886 8.11096 13.1128L4.57163 9.9993L8.11096 6.88578C8.3102 6.70999 8.32582 6.40528 8.14221 6.21386L6.44287 4.40122C6.26707 4.21371 5.97018 4.20199 5.77875 4.38169L0.149425 9.65552C-0.0498084 9.83913 -0.0498084 10.1556 0.149425 10.3392L5.77875 15.6169C5.97018 15.7966 6.26707 15.7888 6.44287 15.5974V15.5974ZM19.2251 15.6208L24.8544 10.3431C25.0536 10.1595 25.0536 9.84304 24.8544 9.65943L19.2251 4.37778C19.0376 4.20199 18.7407 4.2098 18.561 4.39732L16.8616 6.20995C16.6819 6.40137 16.6936 6.70608 16.8929 6.88188L20.4322 9.9993L16.8929 13.1128C16.6936 13.2886 16.678 13.5933 16.8616 13.7847L18.561 15.5974C18.7368 15.7888 19.0337 15.7966 19.2251 15.6208V15.6208Z" fill="#37A268"/>
</svg>
