<svg width="18" height="20" viewBox="0 0 18 20" fill="none" xmlns="http://www.w3.org/2000/svg">
<path d="M2.70734 8.74293C2.12347 9.01758 0.57814 10.2539 0.280504 10.6202C-0.0285967 10.9866 -0.120147 10.4142 0.200363 9.46409C0.452139 8.69713 1.09327 7.65541 2.16928 6.76256C2.79883 6.24742 4.184 5.50339 5.03104 5.06835C5.20279 4.97674 7.42354 4.03809 9.40392 3.56876C9.57567 3.52296 9.19789 3.85493 9.14062 4.03809C8.84299 4.90806 2.90185 8.63986 2.90185 8.63986L2.70734 8.74293ZM11.0752 19.24C11.1782 19.8581 11.0867 19.9039 10.4456 19.9841C9.80457 20.0642 9.33524 19.8238 9.16355 19.6636C8.9918 19.5032 8.95752 19.1484 9.12921 18.8279C9.23228 18.6218 9.3353 18.5532 9.39257 18.3013C9.44978 18.061 9.49558 18.0037 9.54133 17.9122C9.58708 17.832 9.5986 17.7518 9.61 17.1909C9.62147 16.6301 9.61 15.5769 9.66727 15.1305C9.72454 14.6726 11.7049 15.3365 11.7049 15.3365C11.7049 15.3365 11.2355 16.5041 11.1096 16.7903C10.9837 17.0765 10.9952 17.6259 10.9952 17.7404C10.9952 17.8549 10.9494 18.0838 10.915 18.0953C10.8807 18.1067 11.0295 18.4043 10.9608 18.576C10.915 18.7363 11.0638 19.1484 11.0752 19.24V19.24ZM11.8308 1.7372C11.762 1.30221 11.8308 0.443582 11.9223 0.306285C12.2085 -0.0829567 13.7195 -0.128704 14.0401 0.329159C14.1774 0.535188 14.166 1.01598 14.1431 1.32508C14.1202 1.63413 14.0401 2.29807 14.0286 2.51562C14.0172 2.67591 12.3573 2.92768 11.991 2.49269C11.888 2.37827 11.8308 1.7372 11.8308 1.7372V1.7372ZM15.1962 18.1296C15.8945 18.6333 16.4325 18.7249 16.7874 18.908C17.1422 19.0912 17.0507 19.4461 16.4554 19.5491C15.9746 19.6406 15.2191 19.4575 14.7154 19.4575C14.2118 19.4575 13.0899 19.5148 12.7923 19.3087C12.4489 19.0684 12.5977 18.6218 12.5977 18.6218C12.6893 18.3701 12.9182 17.8091 12.8495 17.3512C12.7808 16.8934 12.6892 16.6415 12.5175 16.2179C12.3458 15.7944 12.2199 14.7527 12.3802 14.6955C12.5405 14.6382 12.4946 14.6955 12.7007 14.7412C12.9068 14.787 13.1357 14.8557 13.5822 14.8557C14.0286 14.8557 14.5208 14.787 14.6926 14.7527C14.8643 14.7184 15.0016 14.684 14.9443 15.0389C14.8871 15.3937 14.7154 16.0577 14.704 16.5728C14.6926 17.0879 14.6926 17.6832 14.7269 17.7862C14.7612 17.8892 15.0131 18.0037 15.1962 18.1296V18.1296Z" fill="#007CBA"/>
<path d="M12.7465 2.88197C11.4874 3.9695 9.04907 4.26707 5.4318 5.66365C4.50456 6.0185 2.03198 7.08309 1.43671 8.1935C3.43996 7.03735 4.18405 8.62849 4.34428 10.2654C4.49304 11.7994 5.26006 12.6007 7.22897 12.5549C9.25516 12.5091 9.8733 13.6881 10.4342 15.0733C11.5216 9.77317 13.2617 8.74296 14.3834 7.83865C16.7645 5.90402 13.834 2.49272 12.7465 2.88197Z" fill="#007CBA"/>
<path d="M12.7465 2.88196C9.7245 3.93509 6.73673 4.19839 3.22248 6.36193C2.38684 6.87706 0.623956 8.04461 0.280518 10.2769C1.56255 8.85738 4.52739 7.07168 8.15618 5.9384C9.98774 5.366 11.3271 4.98828 12.9526 4.35867C12.8382 3.62599 12.8382 3.33982 12.7465 2.88196V2.88196Z" fill="#007CBA"/>
<path d="M16.6042 9.15499C16.6042 9.15499 16.3867 9.89908 15.9517 10.1395C15.9517 10.1395 15.6312 10.254 14.9902 9.89913C14.807 9.79612 14.6697 9.44127 14.6811 9.32673C14.6925 9.05197 14.8642 8.92608 14.8642 8.92608C14.8642 8.92608 15.0474 8.61698 15.2649 8.62845C15.4824 8.63986 15.8487 8.6742 15.9632 8.57118C16.0662 8.4567 16.6271 8.77721 16.6042 9.15499V9.15499ZM11.9337 1.95468C11.9337 1.95468 11.888 2.53855 11.8078 2.9048C11.7964 2.97354 11.453 3.00782 11.2011 3.11089C11.6819 4.48453 14.5781 4.47307 14.9558 3.79771C14.7727 3.67182 14.4064 3.4772 14.2347 3.40853C14.0629 3.33979 14.0744 3.35126 14.0629 3.03075C14.0515 2.71018 14.0286 2.11497 14.0057 1.95468C13.9828 1.7944 12.2084 1.7944 11.9337 1.95468Z" fill="#007CBA"/>
<path d="M12.0482 1.95468C12.0482 1.95468 12.0482 2.28665 12.0139 2.60716C12.0025 2.75598 11.991 2.84753 11.9681 2.96201C11.9567 3.03074 12.3573 3.30539 12.4718 3.91213C13.0213 5.13696 14.292 4.53028 14.8185 3.94647C14.6353 3.82052 14.3377 3.64883 13.9943 3.51148C13.8226 3.44275 13.9027 3.29398 13.8913 2.97348C13.8798 2.65297 13.834 2.18358 13.8112 2.01189C13.7882 1.8402 12.323 1.7944 12.0482 1.95468V1.95468Z" fill="#202120"/>
<path d="M11.9338 1.95468C11.9338 1.95468 11.9223 2.16077 11.8881 2.40114C12.0368 2.5499 12.2314 2.75599 12.3803 2.88193C12.4833 2.97354 12.7351 2.96207 12.9641 2.96207C13.1702 2.96207 13.3533 2.98495 13.4335 2.9392C13.6167 2.84759 13.8799 2.61869 14.0287 2.44694C14.0173 2.24091 14.0059 2.04629 13.9944 1.95468C13.9829 1.7944 12.2085 1.7944 11.9338 1.95468V1.95468Z" fill="#007CBA"/>
<path d="M12.9755 2.82465C12.8381 2.82465 12.6778 2.81324 12.5519 2.79032C12.4947 2.77891 12.4374 2.74457 12.3916 2.72164C12.3115 2.66437 12.2314 2.59575 12.1399 2.52702C11.9567 2.38966 11.9452 2.30952 11.9452 2.27524C12.0254 1.55402 11.9223 0.947345 11.9223 0.947345C11.9223 0.947345 11.8422 0.638244 12.2772 0.558103C12.7122 0.477961 12.9754 0.466553 12.9754 0.466553C12.9754 0.466553 13.2502 0.466553 13.6737 0.558103C14.1087 0.638244 14.0286 0.947345 14.0286 0.947345C14.0286 0.947345 13.9256 1.55402 14.0057 2.27524C14.0057 2.30952 13.9943 2.38966 13.8111 2.52702C13.6508 2.6415 13.5249 2.76739 13.399 2.79032C13.2731 2.81324 13.1128 2.82465 12.9755 2.82465V2.82465Z" fill="#007CBA"/>
<path d="M12.9755 0.168945C12.22 0.168945 12.0711 0.374975 11.8536 0.603934C11.8079 0.661146 11.8422 1.00458 11.9224 1.73721H12.0254C12.0254 1.73721 11.9566 1.53112 11.9681 1.29076C11.9796 1.05039 12.0254 1.06185 11.991 1.00458C11.9452 0.935852 11.8536 0.821373 12.0597 0.706949C12.2657 0.592469 12.5862 0.798499 12.9755 0.809964C13.3647 0.798499 13.6966 0.592469 13.9027 0.706949C14.1087 0.821373 14.0172 0.935852 13.9714 1.00458C13.9256 1.07326 13.9828 1.05033 13.9943 1.29076C14.0057 1.53112 13.937 1.73721 13.937 1.73721H14.04C14.1087 1.00458 14.1545 0.684076 14.1202 0.626808C13.9256 0.374975 13.731 0.180354 12.9755 0.168945V0.168945ZM16.6042 9.18935C16.6042 9.18935 16.3867 9.88763 15.9632 10.128C15.8716 10.0823 15.8831 10.0136 15.8029 9.91051C15.78 9.87622 15.6998 9.85324 15.6656 9.81896C15.6312 9.78462 15.6427 9.72735 15.5854 9.6816C15.5396 9.6358 15.5053 9.67014 15.4595 9.6358C15.4137 9.59005 15.4022 9.53278 15.3679 9.4985C15.345 9.47557 15.2534 9.46416 15.2306 9.44123C15.1733 9.38397 14.6697 9.28095 14.6926 9.16647C14.7383 8.99473 14.8299 8.86884 14.8299 8.86884C14.8299 8.86884 15.0474 8.54833 15.2649 8.55974C15.4824 8.5712 15.6884 8.617 15.8029 8.51399C15.9289 8.39945 16.6386 8.82303 16.6042 9.18935Z" fill="#007CBA"/>
<path d="M15.1161 4.12967C15.1161 4.12967 15.8373 3.95792 16.3295 4.4273C16.8218 4.90809 16.7874 5.50331 16.6386 5.86962C16.7645 6.01844 16.9935 6.4305 16.8218 6.92276C17.5773 7.56377 17.2453 8.54829 16.5699 9.20077C16.5699 9.20077 16.4097 8.6055 15.7686 8.57116C15.7915 8.34226 15.1734 8.15905 15.4595 7.56378C15.0245 7.46076 15.036 7.16312 14.9673 6.79687C14.9101 6.4305 15.1161 4.12967 15.1161 4.12967V4.12967Z" fill="#007CBA"/>
<path d="M14.8528 4.45018C14.8528 4.45018 15.6884 4.02665 16.1807 4.50745C16.6729 4.98824 16.5355 5.51478 16.3867 5.88109C16.5126 6.02985 16.8102 6.45349 16.6271 6.9571C16.5927 7.07158 16.3409 7.07158 16.1577 7.36921C16.6155 7.10586 16.9018 7.17459 17.0048 7.50651C17.1651 8.02164 16.8102 8.63978 16.5011 8.98322C16.5011 8.97176 16.4896 8.96029 16.4896 8.94889C16.4439 9.12063 16.3866 9.45255 16.0433 9.81886C15.8715 10.002 15.7341 9.97915 15.5395 9.93334C15.3106 9.87608 15.2305 9.773 14.91 9.60137C14.7268 9.49835 14.8298 9.37241 14.8298 9.2694C14.8298 9.24652 14.8527 9.21213 14.8871 9.16638C14.91 9.10911 14.9787 9.01762 15.0817 8.91455C15.0817 8.91455 15.2305 8.70852 15.448 8.71993C15.6655 8.73139 15.8944 8.68564 15.9517 8.62838C15.9517 8.22773 15.4938 8.21626 15.6541 7.52944C15.6655 7.4951 15.7228 7.43783 15.9059 7.41496C15.6311 7.35769 15.5052 7.34623 15.3106 7.16313C15.1733 7.03724 15.0703 6.87696 15.0359 6.67093C14.9672 6.31608 14.8528 4.45018 14.8528 4.45018V4.45018Z" fill="#202120"/>
<path d="M12.4374 3.72899C12.3687 3.63739 12.0139 3.17952 11.3385 2.99637C11.1439 2.9391 11.018 3.09938 10.8234 3.21386C10.7661 3.17952 10.5143 3.06504 10.377 3.14513C10.2396 3.22521 10.1481 3.30541 10.0106 3.36262C9.94192 3.32829 9.75882 3.32829 9.61 3.3855C9.46118 3.4313 9.23222 3.53431 9.01473 3.83195C8.87737 4.32421 11.4415 3.95784 11.4415 3.95784L12.4374 3.72899Z" fill="#007CBA"/>
<path d="M12.4604 3.72911C12.094 3.60316 12.1513 3.17964 11.3385 3.11096C11.1782 3.0995 11.0752 3.22538 10.9607 3.30553C11.018 3.36279 11.0752 3.45434 11.1095 3.54589C11.0065 3.43147 10.8234 3.2826 10.6402 3.24826C10.4685 3.21398 10.354 3.33986 10.1708 3.43147C10.2051 3.46575 10.2395 3.52302 10.2853 3.59175C10.125 3.48874 10.0106 3.4544 9.79306 3.53449C9.64424 3.58023 9.35807 3.70618 9.14058 4.01528C9.00322 4.50753 11.4529 3.95801 11.4529 3.95801L12.4604 3.72911Z" fill="#007CBA"/>
<path d="M14.6125 3.91218C14.6125 3.91218 14.6125 3.78623 14.601 3.67181C14.601 3.64894 14.5094 3.59167 14.5094 3.56879L14.4866 3.54586C14.4866 3.54586 14.6697 3.44285 14.8071 3.50012C14.9558 3.54586 15.036 3.74049 15.036 3.74049C15.2993 3.64894 15.3222 3.75195 15.4481 3.8893C15.7229 3.83204 15.7571 3.93505 15.9289 4.18694C15.9289 4.18694 15.7229 4.1526 15.3222 4.22122C14.933 4.27843 14.6125 3.90071 14.6125 3.91218V3.91218Z" fill="#007CBA"/>
<path d="M14.5667 3.85498C14.5667 3.85498 14.6353 3.79771 14.6124 3.78625C14.7383 3.71757 14.91 3.63748 14.9902 3.85498C15.2535 3.76337 15.2878 3.88932 15.4137 4.02673C15.7342 3.87791 15.7571 4.06101 15.78 4.14115C15.677 4.14115 15.5282 4.15261 15.3222 4.17549C14.933 4.23276 14.5552 3.84351 14.5667 3.85498Z" fill="#007CBA"/>
<path d="M10.6746 3.56873C10.6746 3.56873 11.327 3.79763 11.8765 3.76329C12.426 3.71754 13.3646 3.67174 13.8683 3.96938C13.8683 3.96938 14.3834 3.78616 14.8642 3.91211C15.3451 4.038 16.2265 4.86223 15.9632 5.73221C15.9403 5.78947 15.7915 5.88102 15.6198 5.93829C15.6198 5.93829 15.7114 6.32748 15.5511 6.64799C15.3908 6.95709 15.036 7.55236 15.0245 8.37653C15.0131 8.51389 14.9902 8.80006 14.9673 8.93741C14.0744 8.90313 12.7007 8.5711 11.35 8.59403C11.3614 8.44527 11.3729 8.35366 11.3843 8.20484H11.4186C11.3499 7.82706 11.327 7.63244 11.2583 7.34627C10.8233 7.07157 10.3654 6.75106 9.97628 6.14432C9.5985 5.53758 10.6746 3.56873 10.6746 3.56873V3.56873ZM15.0932 9.75023C15.0932 9.75023 15.8029 12.2915 14.9673 13.3561C14.9673 13.3561 15.0932 13.8483 14.807 14.3749C14.7612 14.6038 14.7039 14.8099 14.6697 15.0388C14.5208 15.989 14.269 16.3896 14.2003 17.9121L13.5134 17.9007C13.5134 17.9007 13.4333 16.8017 13.1929 16.2179C13.0556 15.886 12.5175 15.4395 12.5405 14.9931C12.5633 14.6496 12.632 14.3635 13.2159 13.9056C13.2616 13.2417 12.5977 12.612 12.7007 10.1394L15.0932 9.75023Z" fill="#007CBA"/>
<path d="M14.8872 9.64716C15.0703 10.8148 15.4939 12.5433 14.7269 13.3904C14.7722 13.6052 14.776 13.8266 14.7383 14.0429C14.7154 14.1802 14.6696 14.329 14.6124 14.4893C14.4979 14.764 14.4521 15.1647 14.4178 15.405C14.269 16.3551 14.269 16.401 14.2003 17.9235L13.5134 17.912C13.5134 17.912 13.4333 16.8131 13.1929 16.2293C13.0556 15.8973 12.7694 15.6112 12.7465 15.1647C12.7236 14.8213 12.964 14.1345 13.5364 14.1574C13.5021 12.7723 12.861 13.047 12.6893 10.1623L14.8872 9.64716ZM10.6746 3.56873C10.6746 3.56873 10.9264 3.64887 11.2011 3.67174C11.4759 3.69461 11.7735 3.67174 12.0368 3.66028C12.5862 3.61453 13.3647 3.55726 13.8798 3.8549C13.8798 3.8549 14.166 3.76329 14.4751 3.78616C14.6124 3.79763 14.7498 3.91211 14.9101 3.95791C15.4137 4.0838 15.8945 4.91944 15.677 5.67499C15.6541 5.73226 15.4938 5.67499 15.3106 5.73226C15.3449 5.89254 15.3679 6.25886 15.1847 6.64804C14.9901 7.03728 14.7383 7.54095 14.7841 8.50253C13.5821 8.44527 13.0441 8.36518 11.8536 8.30791C11.7505 7.88433 11.6818 7.46081 11.6704 7.24331C11.8307 7.16317 11.9222 7.09455 12.0482 6.95714C11.7048 7.01441 11.5674 6.99148 11.3613 6.877C11.1553 6.76252 10.789 6.39621 10.6058 6.15584C10.5829 6.13291 10.457 6.51063 10.1709 6.52215C10.0678 6.37334 10.5028 5.94976 10.4226 5.78953C10.1365 5.20567 10.6746 3.56873 10.6746 3.56873V3.56873Z" fill="#202120"/>
<path d="M14.9787 8.6971C14.9787 8.6971 15.0015 9.10921 15.0015 9.21223C15.0015 9.32671 15.0932 9.67009 15.1046 9.83037C14.9787 10.0479 14.4292 10.5401 13.4333 10.7233C12.4488 10.9293 11.1439 9.38397 11.1439 9.38397C11.1782 9.23516 11.2927 8.80011 11.3728 8.57121C11.3843 8.54833 11.4072 8.49107 11.4072 8.46819C11.5102 8.31938 14.9787 8.6971 14.9787 8.6971V8.6971Z" fill="#007CBA"/>
<path d="M14.7269 8.73137C14.7269 9.01754 14.7727 9.22363 14.8071 9.40679C14.8643 9.73876 14.9558 9.95626 14.9558 10.1737C14.9558 10.8376 14.0859 10.7232 13.3532 10.7461C12.3687 10.9522 11.5331 9.40679 11.5331 9.40679C11.6018 9.14349 11.6476 8.84591 11.7506 8.59402C11.762 8.45667 11.7849 8.28498 11.7963 8.20483C13.1929 8.20483 14.1774 8.28498 14.7498 8.34213C14.7727 8.46808 14.7498 8.68557 14.7269 8.73137Z" fill="#202120"/>
<path d="M13.6279 10.2082C13.6279 10.2082 13.0213 8.85743 11.2011 9.25813C10.7662 10.483 10.1823 11.891 10.5601 13.4135C10.1823 13.9286 9.74731 14.2148 9.74731 15.1649C9.74731 16.115 9.79312 16.2753 9.79312 16.2753L11.1324 16.344C11.1324 16.344 11.5674 15.7831 11.7391 15.1764C11.7849 15.0046 11.8307 14.6956 11.7964 14.3408C11.8421 14.2721 12.0367 14.1119 12.0597 13.8028C12.0597 13.8028 12.7122 13.4594 13.0899 12.6237C13.4448 11.8681 13.3532 11.2156 13.6279 10.2082Z" fill="#007CBA"/>
<path d="M13.6279 10.2081C13.5936 10.0823 13.1357 8.84596 11.4415 9.21222C10.4457 11.868 10.812 12.9669 10.9607 13.4477C10.2853 14.3062 9.97627 14.4894 10.1137 16.2294H11.0066C11.4186 15.5769 11.5103 15.3365 11.5331 14.4779C11.5331 14.4436 11.4072 14.5466 11.3156 14.6611C11.3844 14.3063 11.5789 14.2376 11.7277 14.0201C11.7964 13.9285 11.8536 13.7911 11.8536 13.608C12.6549 13.07 12.9526 12.3945 13.1243 11.6963C13.2617 11.2155 13.4219 10.4256 13.6279 10.2081V10.2081Z" fill="#202120"/>
<path d="M10.8005 8.36523C10.8005 8.36523 11.1096 8.37664 11.3844 8.46825C11.6477 8.5598 11.6477 8.61701 11.7507 8.73155C11.8537 8.84608 12.1055 9.01772 12.0598 9.18941C12.0369 9.28102 11.9797 9.30389 11.8995 9.38403C11.8652 9.41837 11.6133 9.69308 11.5561 9.72741C11.5217 9.75029 11.4759 9.78468 11.4416 9.80755L11.2699 9.92203C11.1554 9.9793 11.0753 10.0136 10.9494 10.0022C10.9494 10.0022 10.6632 9.99071 10.48 9.79615C10.48 9.79615 10.4571 9.70454 10.5029 9.65879C10.5029 9.65879 10.2625 9.45271 10.1938 9.31535C10.1251 9.17806 10.1251 8.98344 10.171 8.88042C10.1938 8.77729 10.6402 8.49112 10.8005 8.36523V8.36523ZM11.0868 19.5034L11.0524 19.7896C11.0524 19.7896 10.9494 19.9155 10.1824 19.9041C9.40401 19.8926 9.19798 19.6522 9.1293 19.5263L9.08356 19.2287C9.08356 19.2287 9.23237 19.0112 9.26671 19.0112C9.51855 19.034 10.3771 19.3775 10.9724 19.469C11.0295 19.469 11.0409 19.4919 11.0868 19.5034ZM12.7466 18.9196C12.7466 19.0454 12.7351 19.0455 12.7351 19.1714C12.8725 19.2744 13.216 19.3317 13.8684 19.3202C14.8185 19.2973 15.6999 19.6064 16.7759 19.4232L16.7874 19.2171L16.6844 19.2057L12.8725 18.8966L12.7466 18.9196Z" fill="#007CBA"/>
<path d="M13.5822 19.3202H13.8684C14.4866 19.2973 15.0704 19.4347 15.6999 19.469C16.0319 19.4576 16.444 19.3774 16.4097 19.137L13.1587 18.8623C12.9641 19.0798 13.1128 19.2629 13.5822 19.3202V19.3202ZM9.85041 14.5009C9.95343 14.5696 10.6517 14.9817 11.785 14.9245C11.7621 15.1419 11.7735 15.5655 11.2699 16.3096C11.018 16.6759 10.8005 17.3169 10.7547 18.1297C10.7662 18.3129 10.8692 18.4731 10.7319 18.7135C10.7776 18.8623 10.9608 19.1599 11.0524 19.3431C11.1439 19.5263 11.1897 19.7323 10.583 19.7438C9.96484 19.7552 8.96891 19.6865 9.10632 19.2058C9.17506 18.9539 9.36962 18.6906 9.39255 18.5876C9.41542 18.4846 9.41542 18.1755 9.60999 17.9694C9.78174 17.3971 9.72447 16.8476 9.69019 16.3325C9.63292 15.7944 9.62145 14.9359 9.85041 14.5009V14.5009ZM10.915 5.17143C11.7278 4.0839 11.0409 3.21398 9.73599 3.47722C9.20939 3.58024 8.68286 3.9466 8.64846 4.6105C8.47677 4.63337 8.08758 4.65624 7.89296 5.36599C7.7442 5.91546 7.66406 6.01848 7.40071 6.29318C7.22901 6.4878 7.41217 6.88845 7.53806 7.17468C7.96164 8.15914 9.26661 8.25069 10.148 8.99478C10.4457 8.91464 10.7547 8.58272 10.8463 8.36522C10.1022 7.48373 10.2625 7.14034 9.96484 6.68248C10.2854 6.56795 11.018 6.12155 10.915 5.17143Z" fill="#007CBA"/>
<path d="M10.7547 5.10272C10.8004 5.03398 10.8806 4.88522 10.9149 4.82795C10.9264 4.81649 11.0523 5.03398 11.0638 5.02257C11.3728 4.51885 11.4529 3.78623 11.098 3.71755C11.0179 3.70609 10.8691 3.6718 10.7432 3.62595C10.5143 3.5458 10.3083 3.5458 9.9419 3.61454C9.43823 3.70609 8.93457 4.0724 8.93457 4.59899C8.93457 4.63333 9.28936 4.73635 9.39243 5.15993C9.22068 4.9195 8.92305 4.65621 8.5682 4.88517C8.19042 5.12553 8.38504 5.675 7.88138 6.24734C7.70963 6.44196 7.73256 6.67092 7.91566 7.12879C8.21329 7.85 9.62133 8.23919 10.3883 8.92601C10.5715 8.84587 10.6973 8.66271 10.7889 8.52536C10.2738 7.98736 10.0677 7.48363 9.91897 7.11732C9.73581 6.6938 9.52973 6.45343 9.12907 6.13281C9.33516 6.21295 9.49544 6.29309 9.58694 6.36177C9.68995 6.43044 9.83877 6.44191 9.97618 6.39611C10.4685 6.22453 10.7318 5.53765 10.7547 5.10272Z" fill="#202120"/>
<path d="M15.7342 5.2858C15.6999 5.72079 15.3794 5.50329 15.2077 5.42315C14.8642 5.27433 14.5208 5.17132 14.1202 5.17132C13.7195 5.17132 13.2044 5.20566 12.758 5.32014C12.1398 5.49183 11.9566 5.48042 11.6819 5.34301C11.4072 5.19419 10.9265 4.82788 10.9265 4.82788C10.9265 4.82788 10.915 4.94236 11.0295 5.09118C11.1782 5.27433 11.5103 5.50329 11.9567 5.65206C12.1742 5.72079 12.3459 5.67493 12.5405 5.62918C13.5593 5.37735 14.6353 5.33155 15.5397 5.88101C15.5855 5.90389 15.7457 5.83521 15.8144 5.7322C15.9059 5.58344 15.7342 5.2858 15.7342 5.2858V5.2858Z" fill="#007CBA"/>
<path d="M10.5258 9.64722C10.6173 9.70448 10.7318 9.73882 10.8577 9.84184C10.8577 9.84184 10.7547 9.84184 10.7089 9.79609C10.6516 9.76175 10.5372 9.65874 10.5258 9.64722V9.64722Z" fill="#007CBA"/>
<path d="M13.834 0.569552C13.7997 0.466538 13.5478 0.283325 12.964 0.283325C12.3344 0.283325 12.1513 0.477946 12.1398 0.580961C12.1398 0.615299 12.094 0.981668 12.0826 1.13043C12.0826 1.13043 12.0826 1.31359 12.094 1.58829C12.1055 1.77145 12.1513 1.87446 12.1741 2.11489C12.197 2.36666 12.2657 2.52695 12.3916 2.73303C12.4489 2.76731 12.4946 2.80171 12.5519 2.81317C12.7809 2.85892 13.1815 2.87039 13.399 2.81317C13.5249 2.77884 13.6852 2.56134 13.7195 2.36672C13.7653 2.12635 13.8111 1.9546 13.8225 1.80584C13.8454 1.65708 13.8569 1.32505 13.8683 1.23344C13.9027 0.981668 13.8454 0.592426 13.834 0.569552V0.569552Z" fill="#202120"/>
<path d="M12.632 14.7184C12.632 14.7184 13.2388 14.9817 14.7384 14.7527C14.7384 14.7527 14.3148 16.8819 14.5095 17.9465C14.5095 17.9465 14.704 18.2212 16.1464 18.7478C16.1464 18.7478 16.7874 18.908 16.7645 19.2286C16.7645 19.2286 16.7874 19.2973 16.009 19.2744C15.2307 19.2514 14.498 19.1141 13.9829 19.1141C13.4677 19.1141 12.9183 19.137 12.8267 18.9882C12.7237 18.8508 12.8496 18.4959 12.9984 18.2898C13.1587 18.0724 13.1129 17.9121 13.1015 17.5229C13.067 16.5041 12.2886 15.451 12.632 14.7184V14.7184Z" fill="#007CBA"/>
<path d="M12.5061 14.913C12.4259 15.0275 12.5175 15.4624 12.632 15.886C12.7464 16.3095 12.9983 16.5614 13.0555 17.2596C13.1128 17.9465 13.1242 18.0381 12.9296 18.4387C12.735 18.8392 12.6778 19.2056 13.3531 19.2171C14.0285 19.2285 14.3949 19.2056 15.0817 19.3087C15.7686 19.4117 16.0089 19.446 16.3867 19.3888C16.7645 19.3316 16.8446 19.2056 16.6843 19.0912C16.5241 18.9767 15.8601 18.8508 15.5739 18.6218C15.2992 18.4158 14.5208 18.0723 14.5094 17.9808C14.4751 17.6717 14.4636 16.5499 14.5208 16.1836C14.5781 15.8172 14.6582 15.2907 14.6811 15.1533C14.704 15.016 14.8184 14.8785 14.6238 14.9243C14.4292 14.9701 13.6966 15.0732 13.1472 15.0388C12.5977 15.0045 12.5405 14.8786 12.5061 14.913V14.913Z" fill="#007CBA"/>
<path opacity="0.3" d="M12.8954 18.4501C13.0899 18.5417 13.3762 18.6104 13.5937 18.6104C13.5937 18.6104 13.5135 18.9882 13.6394 19.2171C13.7653 19.4461 12.7236 19.3087 12.7236 19.3087L12.6779 18.4959L12.8954 18.4501ZM15.9289 19.4346C16.112 19.3773 16.238 19.1713 16.0892 18.9767C15.9289 18.7821 15.7915 18.7478 15.9976 18.7364C16.2036 18.7249 16.9591 19.1828 16.9591 19.1828L16.5699 19.5376L15.9289 19.4346ZM12.4718 15.3594C12.7351 15.451 13.1357 15.4738 13.4792 15.4624C13.8226 15.451 14.3377 15.4051 14.6697 15.2907C15.0016 15.1762 14.8643 15.4166 14.8643 15.4166L14.6811 15.5883C14.6811 15.5883 14.2461 15.76 13.5364 15.7486C12.7008 15.7371 12.4489 15.6456 12.4489 15.6456L12.4718 15.3594ZM12.4947 15.9318C12.758 16.0234 13.1586 16.0462 13.502 16.0348C13.8454 16.0234 14.3033 16.0234 14.6353 15.8974C14.7727 15.8517 14.6926 16.0462 14.6926 16.0462L14.6353 16.1492C14.6353 16.1492 14.1889 16.3095 13.4906 16.298C12.6549 16.2866 12.5061 16.2179 12.5061 16.2179L12.4947 15.9318Z" fill="#007CBA"/>
<path d="M11.7391 7.90735C11.7391 7.98749 12.632 8.43389 13.1242 8.52549C13.6165 8.61704 14.6468 8.52549 14.807 8.49116L14.7841 8.65144C14.7841 8.65144 13.5592 8.83459 12.6206 8.58276C11.6819 8.33093 11.7849 8.27366 11.7849 8.27366L11.7391 7.90735Z" fill="#007CBA"/>
<path d="M9.8274 17.6718C9.96475 17.7405 10.457 17.8664 10.7775 17.7978C10.8233 17.7863 10.7775 17.0079 10.9035 16.653C11.0866 16.1608 11.3843 15.7601 11.5216 14.8902C11.0408 14.8444 10.4913 14.7184 10.2051 14.6268C9.83887 15.7487 9.96481 16.7102 9.8274 17.6718V17.6718ZM10.5944 18.393C10.6746 18.4159 10.7318 18.5074 10.7547 18.4503C10.8005 18.3472 10.6746 18.1527 10.6631 18.0153V18.0038C10.5601 17.9123 9.8618 17.9008 9.9076 17.9466C9.82746 18.0954 9.70157 18.0725 9.65582 18.3702C9.63295 18.5189 9.81611 18.393 9.98774 18.3816C9.6787 18.5876 9.32385 18.8509 9.26658 19.0798C9.1979 19.4004 9.31238 19.492 9.65582 19.6637C9.95346 19.7324 10.3083 19.7439 10.583 19.7324C10.8921 19.6751 10.9494 19.5264 10.8578 19.3203C10.7203 19.0112 10.6288 18.6105 10.5944 18.393V18.393Z" fill="#202120"/>
<path d="M10.7204 3.52295C11.0981 3.74044 11.6247 3.68323 11.8193 3.67177C11.8651 3.67177 12.323 3.59163 12.3459 3.60303C12.3916 3.6145 12.3916 3.64884 12.3916 3.64884C12.3916 3.64884 12.2199 3.74039 11.8308 3.76326C11.4644 3.78613 11.0295 3.76326 10.7891 3.64884C10.5029 3.52295 10.7204 3.52295 10.7204 3.52295ZM14.6124 3.74044C14.6811 3.78619 15.1276 3.95794 15.3222 4.16397C15.4939 4.34718 15.4023 4.33572 15.3679 4.28991C15.3222 4.23264 14.9673 3.99228 14.8299 3.93506C14.6926 3.87785 14.5208 3.77478 14.5208 3.75191C14.5208 3.72904 14.6124 3.74044 14.6124 3.74044V3.74044Z" fill="#007CBA"/>
<path d="M10.6631 8.49105C10.9951 8.46818 11.3385 8.54832 11.556 8.77722C11.6705 8.8917 11.8537 9.01759 11.8308 9.13207C11.8308 9.16641 11.7621 9.25802 11.7049 9.32669C11.6706 9.37244 11.5676 9.47546 11.5332 9.50985C11.4874 9.54419 11.3271 9.67013 11.2928 9.69301C11.2585 9.71594 11.2127 9.7732 11.1783 9.78461C11.0639 9.84188 10.9379 9.79608 10.8235 9.73886C10.709 9.6816 10.8464 9.67013 10.7204 9.57858C10.4114 9.36109 10.2397 9.21221 10.3656 8.78869C10.377 8.70855 10.5029 8.61694 10.6631 8.49105V8.49105Z" fill="#202120"/>
<path opacity="0.4" d="M7.74408 5.86961C6.71382 6.28173 4.09236 7.58675 3.34833 7.9874C3.96647 8.37659 4.25264 9.31524 4.34425 10.2654C4.35566 10.357 4.36712 10.4371 4.37859 10.5287C4.39 10.6088 4.40146 10.666 4.41287 10.7004C4.41287 10.7119 4.41287 10.7347 4.42434 10.7462C5.09975 8.90318 7.51506 6.95714 7.60667 6.80832C7.65241 6.73965 7.5494 6.44201 7.70968 6.1559C7.91577 5.78947 8.31647 5.62919 7.74408 5.86961V5.86961ZM10.1938 14.5123C10.7203 13.4592 10.7318 12.4518 10.7203 11.2727C10.7203 10.7804 11.0752 10.0821 10.8921 10.2768C10.2052 11.0437 8.4767 12.4861 7.22895 12.5662C8.98037 12.509 9.66719 13.3904 10.1938 14.5123Z" fill="#007CBA"/>
<path d="M2.34094 8.96029C2.99343 8.49096 6.37038 6.69379 7.18314 6.4419C7.99585 6.17861 7.74402 5.86951 7.74402 5.86951C7.74402 5.86951 4.44721 7.28895 2.4783 8.51383" fill="#007CBA"/>
<path opacity="0.4" d="M11.9567 5.65209C11.6934 5.54907 11.4873 5.85817 11.556 6.15581C11.6247 6.45344 12.2429 6.78536 12.2085 7.87289C12.1856 8.7658 11.991 9.13205 11.991 9.13205L11.556 8.58264C11.556 8.58264 11.4873 7.34629 11.3385 7.16314C11.1897 6.97998 10.7204 6.64801 10.5372 6.47632C10.3541 6.30457 10.7432 6.07567 10.7204 5.7551C10.6975 5.44606 10.915 4.82791 10.915 4.82791L11.9567 5.65209ZM13.5478 10.5286C13.525 11.3871 13.7196 12.6578 13.7997 13.2645C13.8798 13.8712 13.9828 13.917 13.7997 14.1917C13.6165 14.455 13.3762 14.89 13.3762 14.89L12.5863 14.8213C12.5863 14.8213 13.2159 14.02 13.2502 13.8712C13.2845 13.7224 12.9296 12.5891 12.9296 12.5891L13.5478 10.5286ZM12.0254 2.51556C12.1857 2.87035 12.3802 3.03063 12.6893 3.1337C12.8724 3.20238 13.5936 3.29398 13.8798 2.97342C14.0057 2.8246 13.9256 2.42395 13.9256 2.42395L13.2731 2.95049L12.3916 2.79026L12.2886 2.52697L12.0254 2.51556Z" fill="#007CBA"/>
<path d="M11.991 3.33984C12.3688 3.50013 13.1014 3.67182 13.3075 3.71762C13.5135 3.76342 13.8455 3.55734 14.0057 3.45432C14.292 3.27117 14.6582 3.41999 14.83 3.61461C14.9444 3.74049 14.9903 3.82064 14.9903 3.85497C14.9903 3.90072 14.8529 3.85497 14.8529 3.85497C14.7728 3.82064 14.6812 3.80923 14.6125 3.76337C14.5209 3.71762 14.4293 3.64894 14.292 3.66035C13.7196 3.72909 13.6051 3.92365 13.1129 3.80917C12.6207 3.69469 12.4948 3.59168 11.9683 3.62596" fill="#007CBA"/>
<path d="M10.2167 14.0315C10.1938 14.0086 10.2395 13.9857 10.2167 13.9857C10.0679 13.9857 9.86182 13.8712 9.74729 13.711C9.25508 13.0013 8.53387 12.5319 7.2289 12.5663C5.2714 12.612 4.49297 11.8108 4.34421 10.2769C4.26406 9.44122 4.03511 8.62845 3.56578 8.17053L3.29102 8.34228C3.81755 8.80014 3.9893 9.54423 4.10378 10.563C4.28694 12.097 5.52323 12.8067 6.9656 12.8296C8.46519 12.8525 9.0032 13.1616 9.56407 13.9171C9.74723 14.1575 9.95331 14.2376 10.1135 14.272L10.2167 14.0315Z" fill="#007CBA"/>
<path opacity="0.4" d="M15.5282 6.6709C15.5626 6.84259 15.6541 7.17456 15.8373 7.33479C15.9175 7.41493 15.9289 7.43781 15.8602 7.43781C15.7915 7.43781 15.2878 7.41493 15.2878 7.41493L15.1505 7.17456L15.5282 6.6709Z" fill="#007CBA"/>
</svg>
