<svg width="9" height="20" viewBox="0 0 9 20" fill="none" xmlns="http://www.w3.org/2000/svg">
<path d="M7.12236 16.1946L7.6537 15.2882C7.6537 15.2882 6.45037 15.7805 4.43829 15.7805C2.42231 15.7805 1.2385 15.3078 1.2385 15.3078L1.83236 16.2962L2.03942 19.4022C2.03942 19.7421 3.13337 20 4.48517 20C5.83697 20 6.93483 19.7382 6.93483 19.4022L7.12236 16.2103V16.1946ZM7.63417 10.3186C6.99734 10.3577 6.67306 11.0687 6.35269 11.8228C6.23548 12.0963 5.82916 13.2722 5.56349 13.1238C5.29782 12.9792 5.9073 12.0181 6.07921 11.4438C5.87995 11.5883 5.15717 12.1509 4.97354 11.6235C4.67271 11.8853 4.03197 12.022 4.10229 11.3461C3.94211 11.6352 3.58658 12.0337 3.15681 11.8618C2.59421 11.647 3.48499 9.84976 3.70769 9.93962C3.92648 10.0412 3.66081 10.4397 3.59439 10.5999C3.43811 10.9515 3.2623 11.4008 3.37951 11.4868C3.58267 11.6509 4.13355 10.9046 4.14917 10.889C4.25076 10.7523 4.54768 9.86539 4.78601 9.96697C5.02433 10.0764 4.19215 11.2524 4.50471 11.4868C4.56722 11.5376 4.82508 11.4633 4.98135 11.2875C5.07903 11.1898 5.04777 10.9398 5.37986 10.1428C5.71977 9.34186 6.01669 8.34559 6.2472 8.41982C6.47771 8.49405 6.29018 9.00586 6.20423 9.20511C5.81744 10.1037 5.14935 11.5766 5.46191 11.4633C5.77446 11.35 5.93856 11.35 6.25111 10.9867C6.56367 10.6233 6.53632 10.0256 6.74729 10.0373C6.95045 10.049 6.92311 10.2483 6.87622 10.385C7.07548 10.1584 7.83342 9.66222 8.00924 10.1467C8.22412 10.721 6.92311 11.561 7.24738 11.5063C7.55994 11.4711 8.07175 11.1469 8.29835 10.846L8.89611 5.4271C8.89611 5.4271 8.28272 5.93109 4.42657 5.93109C0.570414 5.93109 0.0234419 5.44272 0.0234419 5.44272L0.519624 10.3889C0.797017 9.61534 1.44557 8.04475 2.45747 8.10726C2.91849 8.13461 3.53969 9.03321 3.00444 9.05665C2.77784 9.06837 2.7544 8.60735 2.49263 8.54484C2.29338 8.50968 2.03161 8.65814 1.8558 8.83395C1.51589 9.16995 0.769668 10.5022 0.867342 11.1664C0.992364 12.0142 2.03942 10.8773 2.21524 10.5413C2.34026 10.303 2.42621 9.5919 2.68798 9.66613C2.96537 9.74036 2.66454 10.4788 2.46137 11.1156C2.23868 11.8423 2.12147 12.6002 1.85189 12.5143C1.5745 12.4244 2.0238 11.4907 2.00036 11.3305C1.73859 11.5805 1.26585 12.1783 0.644646 11.8814L0.953294 14.9639C0.953294 14.9639 1.8011 15.6242 4.34843 15.6242C6.89576 15.6242 7.77873 14.9639 7.77873 14.9639L8.18114 11.393C7.85686 11.7173 6.83325 12.2799 6.77073 11.643C6.72385 11.1312 7.88031 10.3967 7.57947 10.3811L7.63417 10.3186ZM8.95081 0.55123L6.73166 2.88758L6.32534 4.4738C7.89593 4.57148 8.98597 4.79808 8.98597 5.04812C8.98597 5.39975 6.9739 5.68105 4.49299 5.68105C2.01208 5.68105 0 5.39584 0 5.04812C0 4.70041 2.01208 4.41129 4.49299 4.41129C4.84461 4.41129 5.19624 4.41129 5.54786 4.42301L6.01279 2.52814L8.36477 0.0316063C8.42337 -0.0426256 8.59918 0.0198855 8.76328 0.156629C8.92346 0.281651 9.00941 0.441836 8.96253 0.516067V0.543416L8.95081 0.55123ZM5.75493 5.38412C5.75493 5.38412 5.31735 5.38412 5.24703 5.3177L5.21968 5.24347L5.29391 5.15361L5.32907 5.21612L5.30172 5.23566C5.30172 5.27082 5.56349 5.29426 5.76274 5.29035C5.962 5.28645 6.20423 5.27082 6.20423 5.23956L6.15344 5.21222L6.19251 5.15361L6.29018 5.25519C6.29018 5.34505 6.17297 5.36068 6.09874 5.3724C6.00888 5.38021 5.75493 5.38412 5.75493 5.38412Z" fill="#007CBA"/>
</svg>
