<svg width="19" height="20" viewBox="0 0 19 20" fill="none" xmlns="http://www.w3.org/2000/svg">
<path d="M4.74419 20C3.72093 20 2.96899 19.7597 2.48837 19.2791C2.00775 18.814 1.76744 17.9535 1.76744 16.6977C1.76744 16.2791 1.77519 15.907 1.7907 15.5814C1.82171 15.2558 1.85271 14.9457 1.88372 14.6512C1.91473 14.3411 1.93798 14.0388 1.95349 13.7442C1.9845 13.4341 2 13.093 2 12.7209C2 12.5194 1.96124 12.3178 1.88372 12.1163C1.82171 11.9147 1.71318 11.7364 1.55814 11.5814C1.4031 11.4109 1.1938 11.2791 0.930233 11.186C0.682171 11.0775 0.372093 11.0155 0 11V9C0.372093 8.98449 0.682171 8.93023 0.930233 8.83721C1.1938 8.72868 1.4031 8.5969 1.55814 8.44186C1.71318 8.27132 1.82171 8.08527 1.88372 7.88372C1.96124 7.68217 2 7.48062 2 7.27907C2 6.90698 1.9845 6.57364 1.95349 6.27907C1.93798 5.96899 1.91473 5.66667 1.88372 5.37209C1.85271 5.06201 1.82171 4.74419 1.7907 4.4186C1.77519 4.09302 1.76744 3.72093 1.76744 3.30232C1.76744 2.04651 2.00775 1.18605 2.48837 0.720929C2.96899 0.24031 3.72093 0 4.74419 0H6.2093V1.81395H5.76744C5.28682 1.81395 4.96124 1.93023 4.7907 2.16279C4.62016 2.37984 4.53488 2.8062 4.53488 3.44186C4.53488 4.07752 4.55039 4.68992 4.5814 5.27907C4.6124 5.86822 4.62791 6.51938 4.62791 7.23256C4.62791 8.11628 4.48837 8.75969 4.2093 9.16279C3.93023 9.55039 3.49612 9.81395 2.90698 9.95349V10.0465C3.49612 10.186 3.93023 10.4574 4.2093 10.8605C4.48837 11.2481 4.62791 11.8837 4.62791 12.7674C4.62791 13.4806 4.6124 14.1318 4.5814 14.7209C4.55039 15.3101 4.53488 15.9225 4.53488 16.5581C4.53488 17.1938 4.62016 17.6202 4.7907 17.8372C4.96124 18.0698 5.28682 18.186 5.76744 18.186H6.2093V20H4.74419Z" fill="#007CBA"/>
<path d="M12.343 20V18.186H12.7849C13.2655 18.186 13.5911 18.0698 13.7616 17.8372C13.9322 17.6202 14.0174 17.1938 14.0174 16.5581C14.0174 15.9225 14.0019 15.3101 13.9709 14.7209C13.9399 14.1318 13.9244 13.4806 13.9244 12.7674C13.9244 11.8837 14.064 11.2481 14.343 10.8605C14.6221 10.4574 15.0562 10.186 15.6453 10.0465V9.95349C15.0562 9.81395 14.6221 9.55039 14.343 9.16279C14.064 8.75969 13.9244 8.11628 13.9244 7.23256C13.9244 6.51938 13.9399 5.86822 13.9709 5.27907C14.0019 4.68992 14.0174 4.07752 14.0174 3.44186C14.0174 2.8062 13.9322 2.37984 13.7616 2.16279C13.5911 1.93023 13.2655 1.81395 12.7849 1.81395H12.343V0H13.8081C14.8314 0 15.5833 0.24031 16.064 0.720929C16.5446 1.18605 16.7849 2.04651 16.7849 3.30232C16.7849 3.72093 16.7694 4.09302 16.7384 4.4186C16.7229 4.74419 16.6996 5.06201 16.6686 5.37209C16.6376 5.66667 16.6066 5.96899 16.5756 6.27907C16.5601 6.57364 16.5523 6.90698 16.5523 7.27907C16.5523 7.48062 16.5833 7.68217 16.6453 7.88372C16.7229 8.08527 16.8391 8.27132 16.9942 8.44186C17.1492 8.5969 17.3508 8.72868 17.5988 8.83721C17.8624 8.93023 18.1802 8.98449 18.5523 9V11C18.1802 11.0155 17.8624 11.0775 17.5988 11.186C17.3508 11.2791 17.1492 11.4109 16.9942 11.5814C16.8391 11.7364 16.7229 11.9147 16.6453 12.1163C16.5833 12.3178 16.5523 12.5194 16.5523 12.7209C16.5523 13.093 16.5601 13.4341 16.5756 13.7442C16.6066 14.0388 16.6376 14.3411 16.6686 14.6512C16.6996 14.9457 16.7229 15.2558 16.7384 15.5814C16.7694 15.907 16.7849 16.2791 16.7849 16.6977C16.7849 17.9535 16.5446 18.814 16.064 19.2791C15.5833 19.7597 14.8314 20 13.8081 20H12.343Z" fill="#007CBA"/>
</svg>
