<svg width="18" height="20" viewBox="0 0 18 20" fill="none" xmlns="http://www.w3.org/2000/svg">
<path d="M8.86199 20C8.59609 20 8.32622 19.9286 8.09207 19.7936L5.64342 18.3451C5.2783 18.1387 5.45689 18.0673 5.57595 18.0276C6.06409 17.8569 6.16331 17.8212 6.6832 17.5236C6.73876 17.4918 6.8102 17.5037 6.86576 17.5394L8.7469 18.6546C8.81437 18.6943 8.90961 18.6943 8.97311 18.6546L16.3032 14.424C16.3707 14.3844 16.4143 14.305 16.4143 14.2256V5.76446C16.4143 5.68112 16.3707 5.60571 16.2992 5.56206L8.97311 1.33545C8.90565 1.29576 8.81437 1.29576 8.7469 1.33545L1.42474 5.56603C1.35331 5.60571 1.30965 5.68509 1.30965 5.76843V14.2256C1.30965 14.305 1.35331 14.3844 1.42474 14.4201L3.43288 15.5789C4.52426 16.1226 5.19099 15.4837 5.19099 14.8368V6.48675C5.19099 6.36769 5.28624 6.27642 5.4053 6.27642H6.33396C6.44905 6.27642 6.54827 6.36769 6.54827 6.48675V14.8408C6.54827 16.2933 5.75454 17.1267 4.37742 17.1267C3.95277 17.1267 3.61941 17.1267 2.69074 16.6663L0.769918 15.5591C0.29368 15.2852 0 14.7733 0 14.2216V5.76446C0 5.21679 0.29368 4.70086 0.769918 4.42703L8.09207 0.196448C8.5564 -0.0654827 9.17154 -0.0654827 9.63191 0.196448L16.962 4.43099C17.4382 4.70483 17.7319 5.21679 17.7319 5.76843V14.2256C17.7319 14.7733 17.4382 15.2852 16.962 15.5631L9.63191 19.7936C9.39776 19.9286 9.13186 20 8.86199 20ZM14.7792 11.6619C14.7792 10.0784 13.7077 9.6577 11.4575 9.36005C9.17948 9.05844 8.9493 8.90366 8.9493 8.37186C8.9493 7.93134 9.14376 7.34398 10.8304 7.34398C12.3346 7.34398 12.8902 7.66941 13.1203 8.68538C13.1402 8.78063 13.2275 8.85207 13.3267 8.85207H14.2792C14.3387 8.85207 14.3943 8.82826 14.434 8.7846C14.4737 8.74095 14.4935 8.68142 14.4895 8.62189C14.3427 6.87171 13.1799 6.05814 10.8304 6.05814C8.73896 6.05814 7.49281 6.93918 7.49281 8.41949C7.49281 10.0228 8.73499 10.4673 10.7392 10.6657C13.1402 10.8999 13.3267 11.2531 13.3267 11.7254C13.3267 12.5429 12.6679 12.8922 11.1241 12.8922C9.18345 12.8922 8.75881 12.404 8.61593 11.4396C8.60006 11.3364 8.51275 11.261 8.4056 11.261H7.45709C7.33803 11.261 7.24675 11.3563 7.24675 11.4714C7.24675 12.7056 7.91745 14.178 11.1281 14.178C13.4458 14.174 14.7792 13.2573 14.7792 11.6619V11.6619Z" fill="#007CBA"/>
</svg>
