<svg width="20" height="20" viewBox="0 0 20 20" fill="none" xmlns="http://www.w3.org/2000/svg">
<path fill-rule="evenodd" clip-rule="evenodd" d="M0 0H20V20H0V0ZM1.89819 16.25H9.39819V17.5H1.89819V16.25ZM1.80559 2.5926H5.18522C7.17597 2.5926 8.37967 3.75001 8.37967 5.46297V5.50927C8.37967 7.45371 6.89819 8.42593 5.00004 8.42593H3.61115V10.9259H1.80559V2.5926ZM5.09263 6.75927C6.01856 6.75927 6.52782 6.20371 6.52782 5.50927V5.46297C6.52782 4.62964 5.97226 4.21297 5.04634 4.21297H3.65745V6.75927H5.09263ZM9.90741 8.42584L8.8426 9.72213C9.86112 10.6018 11.1111 11.0647 12.3611 11.111C14.1667 11.111 15.4167 10.1851 15.4167 8.51843V8.47213C15.4167 7.03695 14.4445 6.43509 12.7778 5.97213C11.3426 5.60176 10.9722 5.41658 10.9722 4.86102V4.81472C10.9722 4.39806 11.3426 4.07398 12.037 4.07398C12.7315 4.07398 13.4722 4.39806 14.213 4.90732L15.1852 3.51843C14.3519 2.82398 13.287 2.45361 12.0833 2.45361C10.3704 2.45361 9.16667 3.42584 9.16667 4.95361V4.99991C9.16667 6.66658 10.2778 7.12954 11.9445 7.54621C13.3333 7.91658 13.6111 8.14806 13.6111 8.61102V8.65732C13.6111 9.16658 13.1482 9.44435 12.4074 9.44435C11.4352 9.44435 10.6482 9.02769 9.90741 8.42584Z" fill="#007CBA"/>
</svg>
