<svg width="20" height="20" viewBox="0 0 20 20" fill="none" xmlns="http://www.w3.org/2000/svg">
<g clip-path="url(#clip0)">
<path fill-rule="evenodd" clip-rule="evenodd" d="M18.0529 4.85816C17.299 5.31679 15.8494 5.15831 15.0446 4.10253C14.6467 3.58361 14.463 2.93177 14.5313 2.28137C14.5996 1.63097 14.9148 1.03157 15.4119 0.606706C16.3263 -0.180407 17.8724 -0.209267 18.6284 0.564726C18.6114 0.582678 18.5946 0.600966 18.5777 0.619299L18.5777 0.619313L18.5777 0.619357L18.5776 0.619424C18.5389 0.661608 18.4999 0.704028 18.4579 0.743138C17.7898 1.36023 17.1215 1.97646 16.4527 2.5918C16.1726 2.84998 16.1721 2.8505 16.426 3.11654C16.9058 3.62799 17.3859 4.13699 17.8661 4.64354C17.9108 4.6904 17.9526 4.74001 17.9953 4.79049L17.9953 4.79051L17.9953 4.79054L17.9954 4.7906C18.0143 4.81301 18.0333 4.83559 18.0529 4.85816ZM14.9053 4.24789L8.26352 10.9499C8.20945 10.9158 8.15775 10.8781 8.10876 10.8371C7.93265 10.6653 7.75775 10.4929 7.58292 10.3205L7.58289 10.3204L7.58287 10.3204L7.58284 10.3204L7.58281 10.3203L7.58278 10.3203L7.58275 10.3203L7.58272 10.3203C7.34096 10.0818 7.09934 9.84357 6.8549 9.6076C6.74997 9.50633 6.72112 9.43181 6.82709 9.30378C8.18326 7.67288 9.62703 6.13591 11.3914 4.92691C12.0991 4.44152 12.8635 4.13979 13.7191 4.06738C14.1234 4.0273 14.5312 4.08937 14.9053 4.24789ZM1.74438 18.0203L2.05219 17.7017L2.05285 17.701L2.05292 17.7009C2.26757 17.4787 2.48026 17.2585 2.69344 17.0385C3.97563 15.714 5.26009 14.391 6.54682 13.0693C6.65579 12.9626 6.79276 12.8889 6.94187 12.8568C7.66795 12.7102 8.39684 12.578 9.12852 12.4601C9.24393 12.4418 9.39398 12.5021 9.49576 12.5729C9.61237 12.6533 9.7167 12.7511 9.82136 12.8493L9.82137 12.8493L9.82138 12.8493L9.82139 12.8493L9.8214 12.8493L9.82141 12.8493L9.82142 12.8493L9.82144 12.8493L9.82146 12.8493C9.8698 12.8947 9.9182 12.9401 9.96792 12.9838C9.94738 13.0296 9.92149 13.0727 9.8908 13.1124C9.61504 13.3502 9.341 13.5903 9.06695 13.8303C7.95412 14.8051 6.84103 15.7801 5.61141 16.6108C5.08427 16.9671 4.53521 17.2916 3.98668 17.6158L3.98502 17.6168C3.88774 17.6743 3.79049 17.7318 3.69338 17.7894C3.53599 17.8839 3.47356 17.9647 3.52602 18.1599C3.6577 18.6479 3.76525 19.1427 3.86755 19.6375C3.88086 19.7026 3.86311 19.7744 3.84539 19.846C3.83726 19.8789 3.82913 19.9118 3.82401 19.944C3.79583 19.9325 3.76548 19.9233 3.73515 19.914C3.67004 19.8942 3.605 19.8745 3.56169 19.8322C3.14396 19.4295 2.73023 19.0211 2.31733 18.6134L2.31721 18.6133L2.317 18.6131L2.31682 18.6129C2.17037 18.4684 2.02402 18.3239 1.87764 18.1798C1.83057 18.1289 1.78609 18.0757 1.74438 18.0203ZM15.1401 5.97102C15.4009 5.47304 15.3631 4.94987 15.0483 4.40466L8.44482 11.1035L8.78764 11.4658C8.98513 11.6744 9.17844 11.8786 9.37709 12.089C9.39824 12.0702 9.41886 12.0523 9.43884 12.035L9.43888 12.035L9.4389 12.035C9.48132 11.9983 9.52085 11.9641 9.55651 11.9284C9.94398 11.5354 10.3318 11.1428 10.7196 10.7502C11.9481 9.50665 13.1765 8.26315 14.393 7.00843C14.6899 6.69973 14.9414 6.35044 15.1401 5.97102ZM14.5505 8.13776C14.8762 7.58741 15.1176 6.99133 15.2666 6.36938C14.1723 7.61087 13.0151 8.77242 11.8543 9.93765L11.8543 9.93768L11.8543 9.93771C11.0785 10.7164 10.3012 11.4967 9.53979 12.3037C9.59048 12.3514 9.64004 12.3988 9.68899 12.4456C9.84983 12.5992 10.004 12.7465 10.1693 12.8809C10.2155 12.9182 10.3503 12.9029 10.406 12.861C10.5998 12.7142 10.7819 12.5498 10.9632 12.3862L10.9632 12.3861L10.9632 12.3861L10.983 12.3682C12.3675 11.1214 13.6188 9.76446 14.5505 8.13776ZM16.5105 2.86259L18.8383 0.716919C19.1982 1.05542 19.4484 1.49411 19.5565 1.9763C19.7994 2.98223 19.3603 4.10413 18.4978 4.65248C18.4306 4.69551 18.2774 4.7123 18.2355 4.67032C17.8062 4.23194 17.3843 3.78589 16.9506 3.32733L16.9504 3.3271L16.9498 3.32652L16.9491 3.32577C16.8045 3.17283 16.6585 3.0185 16.5105 2.86259ZM19.0628 2.76026C19.0529 2.70211 19.0449 2.6478 19.0374 2.59646C19.0202 2.47917 19.0053 2.37737 18.9747 2.28065C18.9609 2.23649 18.9181 2.2009 18.8756 2.16554C18.855 2.14837 18.8344 2.13126 18.8173 2.11326C18.8105 2.1364 18.8004 2.16034 18.7904 2.18429L18.7903 2.18433C18.7687 2.23582 18.7471 2.28733 18.7575 2.33102C18.8278 2.61963 18.8351 2.8967 18.7003 3.17061C18.6845 3.20219 18.6947 3.24652 18.7049 3.29087C18.7097 3.31137 18.7144 3.33187 18.7166 3.35112C18.7369 3.34236 18.761 3.33521 18.7851 3.32807C18.8375 3.31255 18.8899 3.29705 18.9028 3.26506C18.9647 3.09965 19.0182 2.93116 19.0628 2.76026ZM3.23695 19.965L1.54241 18.1688C1.42386 18.2915 1.30734 18.4117 1.1925 18.5302L1.19041 18.5324L1.19019 18.5326L1.19011 18.5327C0.835699 18.8984 0.497156 19.2478 0.163684 19.6019C0.111021 19.6579 0.0777329 19.7324 0.044627 19.8066L0.0446237 19.8066L0.0446205 19.8066C0.0302376 19.8389 0.0158887 19.871 0 19.9015C0.0348113 19.9125 0.0695697 19.9265 0.104309 19.9405C0.178989 19.9706 0.253581 20.0007 0.328417 20.0007C1.12421 20.0011 1.9185 19.9934 2.71477 19.9856L3.15616 19.9813C3.18375 19.9799 3.21099 19.9745 3.23695 19.965ZM6.54214 9.65845L7.93293 11.0831C7.80172 11.1124 7.67029 11.1419 7.5386 11.1715C7.26903 11.232 6.99837 11.2927 6.72628 11.3523C6.60478 11.3786 6.48328 11.4052 6.36175 11.4318C5.99892 11.5113 5.6358 11.5908 5.27149 11.6635C5.19752 11.6777 5.0821 11.6598 5.04223 11.611C5.00918 11.5706 5.03436 11.4405 5.07843 11.3875C5.46357 10.9269 5.85071 10.4716 6.24305 10.0103L6.54214 9.65845ZM9.06353 12.2114L8.2918 11.3545C8.21825 11.4237 8.14523 11.4922 8.07275 11.5601C7.84591 11.7726 7.62448 11.98 7.40938 12.192C7.37422 12.2268 7.3604 12.2834 7.34663 12.34C7.34026 12.3661 7.3339 12.3922 7.32544 12.416C7.35177 12.424 7.37858 12.4351 7.40539 12.4463C7.46351 12.4704 7.52167 12.4946 7.57516 12.4864C7.92461 12.4338 8.27249 12.369 8.62016 12.3044C8.67492 12.2942 8.72968 12.284 8.78443 12.2738C8.86676 12.2588 8.94794 12.2391 9.00806 12.2246C9.02954 12.2194 9.04834 12.2148 9.06353 12.2114Z" fill="#37A268"/>
</g>
<defs>
<clipPath id="clip0">
<rect width="19.6229" height="20.0007" fill="white"/>
</clipPath>
</defs>
</svg>
