<svg width="20" height="19" viewBox="0 0 20 19" fill="none" xmlns="http://www.w3.org/2000/svg">
<path fill-rule="evenodd" clip-rule="evenodd" d="M6.83346 15.0669C6.06993 15.0669 5.43366 14.4561 5.40821 13.6925C5.38276 13.4126 5.45911 13.1326 5.58636 12.9545C4.16112 10.4857 3.39759 7.35529 4.56833 4.09758C5.40821 1.6543 7.52063 0 9.8112 0C12.2545 0 14.7996 2.13787 15.105 6.26091C14.7232 6.13365 14.1633 5.9555 13.8324 5.87914C13.7561 4.53025 12.6108 1.17074 9.91301 1.22164C8.94587 1.24709 7.52063 1.70521 6.78255 2.64689C5.89177 3.74127 5.38276 5.06472 5.28095 6.59177C5.12825 8.62783 5.56091 10.5112 6.6044 12.2419C6.6553 12.2164 6.73165 12.2164 6.78255 12.2164H6.83346C7.59698 12.2164 8.23325 12.8272 8.2587 13.5907C8.28415 14.3797 7.67333 15.0414 6.88436 15.0669H6.83346ZM18.3372 10.104C16.403 7.83886 13.5525 6.59177 10.2948 6.59177H9.88756C9.6585 6.13366 9.17493 5.82825 8.64046 5.82825H8.58956C7.80059 5.8537 7.18977 6.51542 7.21522 7.3044C7.24067 8.06792 7.87694 8.67874 8.64046 8.67874H8.69137C9.25128 8.65329 9.73485 8.29698 9.93846 7.81341H10.3966C12.3308 7.81341 14.1633 8.37333 15.8176 9.46772C17.0901 10.3076 18.0064 11.402 18.5154 12.7254C18.9481 13.7944 18.9226 14.8378 18.4645 15.7286C17.7519 17.0775 16.5557 17.8156 14.9777 17.8156C13.9597 17.8156 12.9926 17.5102 12.4835 17.2811C12.2036 17.5356 11.6946 17.9428 11.3383 18.1974C12.4326 18.7064 13.5525 18.9863 14.6214 18.9863C17.0647 18.9863 18.8717 17.6374 19.5589 16.2885C20.2969 14.8124 20.246 12.2673 18.3372 10.104ZM13.8579 13.2599C14.596 13.1835 15.1559 12.5472 15.1304 11.7837C15.105 11.0202 14.4687 10.4094 13.7052 10.4094H13.6543C12.8653 10.4348 12.2545 11.0966 12.2799 11.8855C12.3054 12.2673 12.4581 12.5982 12.6871 12.8272C11.8218 14.5324 10.4984 15.7795 8.51321 16.823C7.16431 17.5356 5.76452 17.7901 4.36472 17.612C3.21943 17.4593 2.32866 16.9502 1.76874 16.1104C0.954311 14.8633 0.877958 13.5144 1.56513 12.1655C2.0487 11.1984 2.81222 10.4857 3.29579 10.1294C3.19398 9.79856 3.04128 9.23864 2.96493 8.83143C-0.725445 11.5038 -0.343682 15.1178 0.776155 16.823C1.61603 18.0955 3.32124 18.8845 5.2046 18.8845C5.71362 18.8845 6.22263 18.8336 6.73165 18.7064C9.98936 18.0701 12.4581 16.1358 13.8579 13.2599Z" fill="#007CBA"/>
</svg>
