<svg width="20" height="20" viewBox="0 0 20 20" fill="none" xmlns="http://www.w3.org/2000/svg">
<path fill-rule="evenodd" clip-rule="evenodd" d="M6.78711 0H13.2131L13.2127 4.88899L11.6755 6.42577H8.32389L6.78711 4.88899V0ZM15.1113 6.78735L13.574 8.32469V11.6763L15.1113 13.2131H19.9992V6.78735H15.1113ZM6.78711 20H13.2127V15.1117L11.6757 13.5746H8.3237L6.78804 15.1114L6.78711 20ZM19.9989 20V15.1118L18.4632 13.5745H13.5742V19.9999L19.9989 20ZM0 1.53831L1.53678 0.000976562H6.42558V6.42637H0V1.53831ZM13.5742 0V4.88899L15.1116 6.42577H19.9989V0H13.5742ZM9.48868 10.7653C9.64005 10.8664 9.81801 10.9204 10.0001 10.9204C10.1209 10.9204 10.2406 10.8966 10.3523 10.8504C10.464 10.8041 10.5655 10.7363 10.6509 10.6508C10.7364 10.5653 10.8042 10.4639 10.8505 10.3522C10.8967 10.2405 10.9205 10.1208 10.9205 9.99994C10.9205 9.81789 10.8666 9.63993 10.7654 9.48856C10.6643 9.33718 10.5205 9.2192 10.3523 9.14954C10.1841 9.07987 9.99904 9.06164 9.82049 9.09715C9.64193 9.13267 9.47792 9.22034 9.34919 9.34907C9.22046 9.4778 9.13279 9.64181 9.09728 9.82037C9.06176 9.99892 9.07999 10.184 9.14966 10.3522C9.21933 10.5204 9.33731 10.6642 9.48868 10.7653ZM6.42583 6.78735H0.000244141V13.2131H4.88867L6.42583 11.6763V6.78735ZM4.88867 13.5741L6.42583 15.1112V18.4642L4.88867 19.9999H0.000244141V13.5741H4.88867Z" fill="#007CBA"/>
</svg>
