<svg width="20" height="20" viewBox="0 0 20 20" fill="none" xmlns="http://www.w3.org/2000/svg">
<path d="M2.16532 6.50806L6.25806 17.7177C3.39516 16.3306 1.42339 13.3952 1.42339 10C1.42339 8.75403 1.68952 7.57661 2.16532 6.50806V6.50806ZM15.7903 9.56855C15.7903 8.50806 15.4113 7.77419 15.0847 7.20161C14.6492 6.49597 14.2419 5.89516 14.2419 5.18952C14.2419 4.39919 14.8387 3.66532 15.6815 3.66532C15.7177 3.66532 15.754 3.66935 15.7944 3.67339C14.2661 2.27419 12.2339 1.41935 10 1.41935C7.00403 1.41935 4.36694 2.95565 2.83064 5.28629C3.03226 5.29435 3.22177 5.29839 3.38306 5.29839C4.27823 5.29839 5.66935 5.18952 5.66935 5.18952C6.13306 5.16129 6.18548 5.84274 5.72581 5.89516C5.72581 5.89516 5.2621 5.94758 4.74597 5.97581L7.87097 15.2661L9.75 9.6371L8.41532 5.97581C7.95161 5.94758 7.51613 5.89516 7.51613 5.89516C7.05242 5.86694 7.10887 5.16129 7.56855 5.18952C7.56855 5.18952 8.98387 5.29839 9.82661 5.29839C10.7218 5.29839 12.1129 5.18952 12.1129 5.18952C12.5766 5.16129 12.629 5.84274 12.1694 5.89516C12.1694 5.89516 11.7056 5.94758 11.1895 5.97581L14.2903 15.1976L15.1452 12.3387C15.5081 11.1532 15.7903 10.3024 15.7903 9.56855ZM10.1492 10.75L7.57661 18.2298C8.34677 18.4556 9.15726 18.5806 10 18.5806C11 18.5806 11.9556 18.4073 12.8468 18.0927C12.8226 18.0565 12.8024 18.0161 12.7863 17.9758L10.1492 10.75ZM17.5282 5.88306C17.5645 6.15726 17.5847 6.44758 17.5847 6.76613C17.5847 7.6371 17.4234 8.6129 16.9315 9.83871L14.3105 17.4153C16.8629 15.9274 18.5766 13.1653 18.5766 10C18.5766 8.50806 18.1976 7.10484 17.5282 5.88306V5.88306ZM20 10C20 15.5161 15.5121 20 10 20C4.48387 20 0 15.5121 0 10C0 4.48387 4.48387 0 10 0C15.5121 0 20 4.48387 20 10ZM19.5403 10C19.5403 4.7379 15.2581 0.459677 10 0.459677C4.7379 0.459677 0.459677 4.7379 0.459677 10C0.459677 15.2621 4.74194 19.5403 10 19.5403C15.2621 19.5403 19.5403 15.2621 19.5403 10Z" fill="#37A268"/>
</svg>
