<svg width="11" height="13" viewBox="0 0 11 13" fill="none" xmlns="http://www.w3.org/2000/svg">
<g clip-path="url(#clip0)">
<path d="M4.84305 2.279L5.33859 1.78346C5.54841 1.57364 5.8877 1.57364 6.09528 1.78346L10.4346 6.12052C10.6444 6.33034 10.6444 6.66963 10.4346 6.87722L6.09528 11.2165C5.88546 11.4263 5.54618 11.4263 5.33859 11.2165L4.84305 10.721C4.631 10.5089 4.63546 10.1629 4.85198 9.95534L7.54171 7.39284L1.12653 7.39284C0.82966 7.39284 0.59082 7.154 0.59082 6.85713L0.59082 6.14284C0.59082 5.84597 0.82966 5.60713 1.12653 5.60713L7.54171 5.60713L4.85198 3.04463C4.63323 2.83704 4.62877 2.49105 4.84305 2.279Z" fill="#6C6C6C"/>
</g>
<defs>
<clipPath id="clip0">
<rect width="10" height="11.4286" fill="white" transform="translate(0.59082 0.785706)"/>
</clipPath>
</defs>
</svg>
