<svg width="9" height="12" viewBox="0 0 9 12" fill="none" xmlns="http://www.w3.org/2000/svg">
<path d="M3.39806 8.00088L3.39373 7.99658L2.68331 7.37581L3.39373 6.75503C3.4717 6.68629 3.48036 6.566 3.41105 6.48867L3.40672 6.48438L3.02985 6.08485C2.95621 6.00752 2.83492 6.00537 2.76128 6.07625L1.51156 7.23833C1.43142 7.31351 1.43142 7.44025 1.51156 7.51328L2.76128 8.67536C2.79594 8.70758 2.84359 8.72691 2.89124 8.72691C2.94322 8.72691 2.9952 8.70543 3.02985 8.66677L3.40672 8.26723C3.4782 8.19205 3.47386 8.07176 3.39806 8.00088ZM8.16305 2.60506L6.34585 0.802871C6.15092 0.609549 5.88668 0.5 5.61161 0.5H1.191C0.617037 0.502148 0.151367 0.963972 0.151367 1.5332V10.469C0.151367 11.0382 0.617037 11.5 1.191 11.5H7.42881C8.00277 11.5 8.46844 11.0382 8.46844 10.469V3.33538C8.46844 3.06259 8.35798 2.79838 8.16305 2.60506ZM5.69608 1.61697L7.34434 3.25161H5.69608V1.61697ZM7.42881 10.469H1.191V1.5332H4.65645V3.76714C4.65645 4.05282 4.8882 4.28266 5.17627 4.28266H7.42881V10.469ZM4.6911 5.09891C4.58931 5.06883 4.48534 5.12683 4.45502 5.22779L3.27027 9.26821C3.23995 9.36917 3.29843 9.47442 3.40022 9.50234L3.9287 9.65485C4.0305 9.68493 4.13663 9.62478 4.16479 9.52597L5.34954 5.4834C5.37986 5.38244 5.32138 5.27719 5.21958 5.24927L4.6911 5.09891ZM5.22175 6.75073L5.22608 6.75503L5.9365 7.37581L5.22608 7.99658C5.14811 8.06532 5.13945 8.18561 5.20875 8.26294L5.21309 8.26723L5.58995 8.66677C5.66143 8.74195 5.78272 8.74624 5.85853 8.67536L7.10825 7.51328C7.18839 7.4381 7.18839 7.31137 7.10825 7.23833L5.85853 6.07625C5.78272 6.00537 5.66143 6.00752 5.58995 6.08485L5.21309 6.48438C5.14161 6.55956 5.14594 6.67985 5.22175 6.75073Z" fill="#6C6C6C"/>
</svg>
