<svg width="9" height="11" viewBox="0 0 9 11" fill="none" xmlns="http://www.w3.org/2000/svg">
<path d="M2.5 3.39062V2.60938C2.5 2.48047 2.60547 2.375 2.73438 2.375H3.51562C3.64453 2.375 3.75 2.48047 3.75 2.60938V3.39062C3.75 3.51953 3.64453 3.625 3.51562 3.625H2.73438C2.60547 3.625 2.5 3.51953 2.5 3.39062ZM5.23438 3.625H6.01562C6.14453 3.625 6.25 3.51953 6.25 3.39062V2.60938C6.25 2.48047 6.14453 2.375 6.01562 2.375H5.23438C5.10547 2.375 5 2.48047 5 2.60938V3.39062C5 3.51953 5.10547 3.625 5.23438 3.625ZM2.73438 5.5H3.51562C3.64453 5.5 3.75 5.39453 3.75 5.26562V4.48438C3.75 4.35547 3.64453 4.25 3.51562 4.25H2.73438C2.60547 4.25 2.5 4.35547 2.5 4.48438V5.26562C2.5 5.39453 2.60547 5.5 2.73438 5.5ZM5.23438 5.5H6.01562C6.14453 5.5 6.25 5.39453 6.25 5.26562V4.48438C6.25 4.35547 6.14453 4.25 6.01562 4.25H5.23438C5.10547 4.25 5 4.35547 5 4.48438V5.26562C5 5.39453 5.10547 5.5 5.23438 5.5ZM3.75 7.14062V6.35938C3.75 6.23047 3.64453 6.125 3.51562 6.125H2.73438C2.60547 6.125 2.5 6.23047 2.5 6.35938V7.14062C2.5 7.26953 2.60547 7.375 2.73438 7.375H3.51562C3.64453 7.375 3.75 7.26953 3.75 7.14062ZM5.23438 7.375H6.01562C6.14453 7.375 6.25 7.26953 6.25 7.14062V6.35938C6.25 6.23047 6.14453 6.125 6.01562 6.125H5.23438C5.10547 6.125 5 6.23047 5 6.35938V7.14062C5 7.26953 5.10547 7.375 5.23438 7.375ZM8.75 9.79688V10.5H0V9.79688C0 9.66797 0.105469 9.5625 0.234375 9.5625H0.615234V0.96875C0.615234 0.708984 0.824219 0.5 1.08398 0.5H7.66602C7.92578 0.5 8.13477 0.708984 8.13477 0.96875V9.5625H8.51562C8.64453 9.5625 8.75 9.66797 8.75 9.79688ZM1.55273 9.54297H3.75V8.23438C3.75 8.10547 3.85547 8 3.98438 8H4.76562C4.89453 8 5 8.10547 5 8.23438V9.54297H7.19727V1.45703L1.5625 1.4375L1.55273 9.54297Z" fill="#6C6C6C"/>
</svg>
