<svg width="12" height="17" viewBox="0 0 12 17" fill="none" xmlns="http://www.w3.org/2000/svg">
<path d="M8.4307 5.34045C9.13889 5.34045 9.81807 5.05912 10.3188 4.55836C10.8196 4.0576 11.1009 3.37841 11.1009 2.67023C11.1009 1.96204 10.8196 1.28286 10.3188 0.782091C9.81807 0.281327 9.13889 0 8.4307 0L3.09025 0C2.38247 0 1.70369 0.281162 1.20322 0.781633C0.702748 1.2821 0.421586 1.96089 0.421586 2.66866C0.421586 3.37643 0.702748 4.05522 1.20322 4.55569C1.70369 5.05616 2.38247 5.33732 3.09025 5.33732C2.38206 5.33732 1.70288 5.61865 1.20211 6.11941C0.701349 6.62018 0.420022 7.29936 0.420022 8.00755C0.420022 8.71573 0.701349 9.39492 1.20211 9.89568C1.70288 10.3964 2.38206 10.6778 3.09025 10.6778C2.56213 10.6775 2.04577 10.8338 1.60649 11.1269C1.1672 11.4201 0.824705 11.8369 0.622316 12.3247C0.419927 12.8125 0.366733 13.3494 0.469461 13.8674C0.572189 14.3854 0.826224 14.8614 1.19944 15.235C1.57266 15.6087 2.0483 15.8633 2.56621 15.9666C3.08413 16.0699 3.62105 16.0174 4.10909 15.8156C4.59713 15.6137 5.01436 15.2717 5.30802 14.8328C5.60169 14.3939 5.7586 13.8777 5.75891 13.3496V5.34045H8.4307ZM8.4307 5.34045C7.90289 5.34045 7.38693 5.49696 6.94807 5.7902C6.50921 6.08344 6.16716 6.50023 5.96518 6.98786C5.76319 7.47549 5.71034 8.01207 5.81331 8.52974C5.91629 9.04741 6.17045 9.52292 6.54367 9.89614C6.91689 10.2694 7.3924 10.5235 7.91007 10.6265C8.42774 10.7295 8.96432 10.6766 9.45195 10.4746C9.93958 10.2726 10.3564 9.9306 10.6496 9.49174C10.9428 9.05288 11.0994 8.53692 11.0994 8.00911C11.0993 7.30136 10.8181 6.62263 10.3176 6.12217C9.81718 5.62172 9.13845 5.34053 8.4307 5.34045Z" fill="#6C6C6C"/>
</svg>
