<svg width="9" height="10" viewBox="0 0 9 10" fill="none" xmlns="http://www.w3.org/2000/svg">
<path d="M4.375 5C5.75586 5 6.875 3.88086 6.875 2.5C6.875 1.11914 5.75586 0 4.375 0C2.99414 0 1.875 1.11914 1.875 2.5C1.875 3.88086 2.99414 5 4.375 5ZM6.125 5.625H5.79883C5.36523 5.82422 4.88281 5.9375 4.375 5.9375C3.86719 5.9375 3.38672 5.82422 2.95117 5.625H2.625C1.17578 5.625 0 6.80078 0 8.25V9.0625C0 9.58008 0.419922 10 0.9375 10H7.8125C8.33008 10 8.75 9.58008 8.75 9.0625V8.25C8.75 6.80078 7.57422 5.625 6.125 5.625Z" fill="#6C6C6C"/>
</svg>
