<svg width="27" height="16" viewBox="0 0 27 16" fill="none" xmlns="http://www.w3.org/2000/svg">
<path fill-rule="evenodd" clip-rule="evenodd" d="M0.804688 16H9.88515C9.88515 16 8.14952 8.08046 13.8966 4.87356C15.1495 4.26437 19.138 1.9885 25.6668 6.81609C25.8737 6.64368 26.0691 6.50575 26.0691 6.50575C26.0691 6.50575 20.0921 0.540227 13.4369 1.20689C10.092 1.50574 5.9771 4.55172 3.56331 8.57471C1.14952 12.5977 0.804688 16 0.804688 16Z" fill="#6C6C6C"/>
<path fill-rule="evenodd" clip-rule="evenodd" d="M0.804688 16H9.88515C9.88515 16 8.14952 8.08046 13.8966 4.87356C15.1495 4.26437 19.138 1.9885 25.6668 6.81609C25.8737 6.64368 26.0691 6.50575 26.0691 6.50575C26.0691 6.50575 20.0921 0.540227 13.4369 1.20689C10.092 1.50574 5.9771 4.55172 3.56331 8.57471C1.14952 12.5977 0.804688 16 0.804688 16Z" fill="#6C6C6C"/>
<path fill-rule="evenodd" clip-rule="evenodd" d="M0.804688 15.9999H9.88515C9.88515 15.9999 8.14952 8.0804 13.8966 4.8735C15.1495 4.26431 19.138 1.98845 25.6668 6.81603C25.8737 6.64362 26.0691 6.50569 26.0691 6.50569C26.0691 6.50569 20.0921 0.540169 13.4369 1.20684C10.0806 1.50569 5.96561 4.55166 3.55181 8.57466C1.13802 12.5976 0.804688 15.9999 0.804688 15.9999ZM19.7242 1.85051L19.7702 1.0804C19.6668 1.02293 19.3794 0.884997 18.6553 0.678101L18.6093 1.43672C18.9886 1.56316 19.3564 1.70109 19.7242 1.85051Z" fill="#6C6C6C"/>
<path fill-rule="evenodd" clip-rule="evenodd" d="M18.6322 4.28736L18.5862 5.0115C18.9655 5.02299 19.3448 5.06897 19.7241 5.14943L19.7701 4.43678C19.3793 4.35632 19 4.31035 18.6322 4.28736ZM14.3793 0.70115H14.4943L14.2644 0C13.9081 0 13.5402 0.0229885 13.1609 0.0689655L13.3793 0.747127C13.7126 0.712644 14.046 0.70115 14.3793 0.70115ZM14.931 4.93104L15.1954 5.72414C15.5287 5.56322 15.8621 5.42529 16.1954 5.32184L15.9425 4.56322C15.5517 4.67816 15.2184 4.8046 14.931 4.93104ZM9.71265 1.90805L9.19541 1.11494C8.90805 1.26437 8.6092 1.42529 8.29885 1.6092L8.82759 2.41379C9.12644 2.22989 9.4138 2.05747 9.71265 1.90805ZM12.069 7.08046L12.6207 7.90805C12.8161 7.62069 13.046 7.35632 13.2989 7.09196L12.7816 6.31035C12.5172 6.55173 12.2759 6.81609 12.069 7.08046ZM10.4023 10.7816L11.3333 11.5172C11.3793 11.069 11.4598 10.6207 11.5747 10.1724L10.7471 9.51724C10.5977 9.94253 10.4943 10.3678 10.4023 10.7816ZM5.36782 5.32184L4.55173 4.6092C4.25288 4.89655 3.96552 5.18391 3.70115 5.47127L4.58621 6.22989C4.82759 5.91954 5.09196 5.6092 5.36782 5.32184ZM1.89655 10.4598L0.574713 9.97701C0.356322 10.4713 0.114943 11.046 0 11.3563L1.32184 11.8391C1.47126 11.4483 1.71264 10.8851 1.89655 10.4598ZM10.2299 13.7012C10.2529 14.3103 10.3103 14.8046 10.3678 15.1494L11.7471 15.6437C11.6437 15.1954 11.5402 14.6897 11.4713 14.1494L10.2299 13.7012Z" fill="#6C6C6C"/>
</svg>
