<svg width="11" height="10" viewBox="0 0 11 10" fill="none" xmlns="http://www.w3.org/2000/svg">
<path d="M9.84843 0.721275C8.60664 -0.363251 6.68808 -0.200349 5.5 1.05601C4.31191 -0.200349 2.39336 -0.365483 1.15156 0.721275C-0.46406 2.13384 -0.227732 4.43678 0.92383 5.65743L4.69219 9.64519C4.90703 9.8728 5.19492 10 5.5 10C5.80723 10 6.09297 9.87503 6.30781 9.64742L10.0762 5.65966C11.2256 4.43901 11.4662 2.13607 9.84843 0.721275ZM9.3414 4.9054L5.57305 8.89316C5.52148 8.94671 5.47851 8.94671 5.42695 8.89316L1.65859 4.9054C0.874416 4.07527 0.715432 2.50427 1.81543 1.54248C2.65117 0.812768 3.94023 0.922113 4.74805 1.77679L5.5 2.57345L6.25195 1.77679C7.06406 0.91765 8.35312 0.812768 9.18457 1.54025C10.2824 2.50204 10.1191 4.08197 9.3414 4.9054Z" fill="#6C6C6C"/>
</svg>
