<svg width="19" height="17" viewBox="0 0 19 17" fill="none" xmlns="http://www.w3.org/2000/svg">
<path d="M15.014 5.1909C14.8201 5.12654 14.6263 5.06576 14.4324 5.00856C14.4647 4.87627 14.4934 4.74398 14.5222 4.6117C14.9637 2.48081 14.6729 0.768244 13.6928 0.203345C12.7486 -0.336526 11.2084 0.224797 9.65032 1.57626C9.49595 1.70855 9.34516 1.84799 9.20155 1.98742C9.10462 1.89446 9.0041 1.80151 8.90357 1.71212C7.27005 0.267701 5.63295 -0.340101 4.65283 0.228372C3.71222 0.771819 3.43218 2.38428 3.8271 4.40075C3.86659 4.60097 3.90967 4.79761 3.95994 4.99783C3.73017 5.06218 3.50399 5.13369 3.29217 5.20877C1.37503 5.8702 0 6.91419 0 7.99394C0 9.10943 1.46478 10.2285 3.45731 10.9078C3.61887 10.9614 3.78043 11.0151 3.94557 11.0615C3.89172 11.2761 3.84505 11.487 3.80197 11.7051C3.425 13.6894 3.7194 15.2625 4.66001 15.8024C5.62935 16.3601 7.25928 15.7881 8.84613 14.4045C8.97178 14.2936 9.09744 14.1792 9.22309 14.0577C9.38106 14.2114 9.54621 14.358 9.71136 14.501C11.2479 15.8167 12.7666 16.3494 13.7036 15.8096C14.6729 15.2518 14.9889 13.5607 14.5796 11.5013C14.5473 11.344 14.5114 11.1831 14.4719 11.0186C14.5868 10.9865 14.6981 10.9507 14.8094 10.915C16.8809 10.2321 18.3816 9.12731 18.3816 7.99394C18.3816 6.91062 16.967 5.85948 15.014 5.1909ZM10.1565 2.15546C11.4921 0.997063 12.7379 0.542999 13.3051 0.868352C13.9118 1.21516 14.1452 2.61668 13.7646 4.45796C13.7395 4.57952 13.7144 4.6975 13.6821 4.81549C12.885 4.63672 12.0773 4.50801 11.2659 4.43651C10.7992 3.7715 10.2894 3.1351 9.73649 2.53802C9.8765 2.40573 10.0129 2.2806 10.1565 2.15546ZM6.00273 9.84952C6.18583 10.1606 6.37252 10.4716 6.56997 10.7755C6.00991 10.7147 5.45344 10.6254 4.90414 10.5074C5.06211 9.99253 5.25957 9.45981 5.48934 8.91636C5.65449 9.23099 5.82322 9.54204 6.00273 9.84952ZM4.91492 5.54843C5.4319 5.43402 5.98119 5.34106 6.55202 5.26955C6.36175 5.5663 6.17506 5.8702 5.99914 6.17768C5.82322 6.48158 5.6509 6.79263 5.48934 7.10726C5.26316 6.57454 5.07288 6.05254 4.91492 5.54843ZM5.89862 8.01181C6.13557 7.51842 6.39406 7.03575 6.66691 6.56024C6.93976 6.08472 7.23415 5.62351 7.5429 5.16944C8.08143 5.13012 8.63072 5.10866 9.19078 5.10866C9.75085 5.10866 10.3037 5.13012 10.8387 5.16944C11.1438 5.61993 11.4346 6.08115 11.7111 6.55309C11.9875 7.02503 12.246 7.50769 12.4901 7.99751C12.2496 8.4909 11.9911 8.97714 11.7147 9.45623C11.4418 9.93175 11.151 10.393 10.8458 10.8506C10.3109 10.8899 9.75444 10.9078 9.19078 10.9078C8.62713 10.9078 8.08143 10.8899 7.55368 10.8578C7.24133 10.4037 6.94694 9.9389 6.6705 9.46339C6.39406 8.98787 6.13916 8.5052 5.89862 8.01181ZM12.3824 9.84237C12.5655 9.52774 12.7379 9.20954 12.9066 8.88776C13.1364 9.40618 13.3374 9.93175 13.5133 10.4716C12.9569 10.5968 12.3932 10.6933 11.826 10.7576C12.0198 10.4573 12.2029 10.1498 12.3824 9.84237ZM12.8994 7.10726C12.7307 6.79263 12.5583 6.47801 12.3788 6.17053C12.2029 5.86663 12.0198 5.5663 11.8295 5.26955C12.4076 5.34106 12.9604 5.43759 13.4774 5.55558C13.3123 6.08472 13.1184 6.59957 12.8994 7.10726ZM9.19796 3.08504C9.57493 3.49263 9.93035 3.92166 10.2606 4.365C9.5498 4.33282 8.83536 4.33282 8.12451 4.365C8.47634 3.90379 8.83895 3.47475 9.19796 3.08504ZM5.03339 0.893379C5.63654 0.542999 6.97566 1.04354 8.38659 2.28775C8.47634 2.36641 8.5661 2.45221 8.65944 2.53802C8.10297 3.1351 7.58958 3.7715 7.11927 4.43651C6.30789 4.50801 5.5037 4.63315 4.70669 4.80834C4.66001 4.626 4.62052 4.44008 4.58103 4.25417C4.24356 2.52372 4.46615 1.21873 5.03339 0.893379ZM4.1538 10.3179C4.00302 10.275 3.85582 10.2285 3.70862 10.1784C2.94392 9.9389 2.07511 9.55992 1.44683 9.06295C1.08423 8.81268 0.840095 8.42655 0.771882 7.99394C0.771882 7.33965 1.90637 6.50303 3.54348 5.93456C3.74812 5.86305 3.95635 5.7987 4.16457 5.73792C4.4087 6.51376 4.7031 7.2753 5.04416 8.01181C4.69951 8.75905 4.40152 9.53132 4.1538 10.3179ZM8.33992 13.8217C7.74754 14.3616 7.06182 14.7906 6.31507 15.0838C5.91657 15.2733 5.45703 15.2911 5.04775 15.1302C4.47692 14.8013 4.23997 13.5392 4.56308 11.841C4.60257 11.6407 4.64565 11.4405 4.69592 11.2439C5.50011 11.4155 6.31148 11.5335 7.13363 11.5943C7.60753 12.2628 8.1281 12.9028 8.68457 13.5035C8.56969 13.6143 8.4548 13.7216 8.33992 13.8217ZM9.2195 12.9529C8.85331 12.5596 8.48711 12.1234 8.13169 11.655C8.47634 11.6693 8.83177 11.6765 9.19078 11.6765C9.56057 11.6765 9.92317 11.6693 10.2822 11.6515C9.95189 12.1055 9.59647 12.5381 9.2195 12.9529ZM13.9118 14.0255C13.8795 14.4617 13.6641 14.8692 13.3195 15.1445C12.7486 15.4735 11.5316 15.0444 10.2176 13.9218C10.0668 13.7931 9.91599 13.6536 9.76162 13.5106C10.3109 12.9064 10.8171 12.2664 11.2767 11.5943C12.0988 11.5263 12.9174 11.4012 13.7251 11.2189C13.761 11.3654 13.7934 11.512 13.8221 11.655C13.998 12.4273 14.0267 13.2318 13.9118 14.0255ZM14.5652 10.182C14.4647 10.2142 14.3642 10.2464 14.2601 10.275C14.0088 9.49556 13.7 8.73402 13.3446 7.99394C13.6892 7.26457 13.98 6.51376 14.2242 5.74507C14.4109 5.7987 14.5904 5.8559 14.7627 5.91311C16.4357 6.48516 17.6097 7.33608 17.6097 7.98678C17.6097 8.68754 16.3567 9.5921 14.5652 10.182ZM9.19078 9.64573C10.0991 9.64573 10.8351 8.91279 10.8351 8.00824C10.8351 7.10368 10.0991 6.37075 9.19078 6.37075C8.28248 6.37075 7.54649 7.10368 7.54649 8.00824C7.54649 8.91279 8.28248 9.64573 9.19078 9.64573Z" fill="#6C6C6C"/>
</svg>
